<?xml version="1.0" encoding="UTF-8" standalone="no"?>
<!-- Created with Inkscape (http://www.inkscape.org/) -->
<svg xmlns:svg="http://www.w3.org/2000/svg" xmlns="http://www.w3.org/2000/svg" version="1.0" width="602.36218" height="242.1496" id="svg2534">
  <defs id="defs2536"/>
  <g transform="translate(-433.678, 202.433)" id="layer1">
    <g transform="matrix(1.25, 0, 0, -1.25, 34.3948, 163.228)" id="g2509">
      <path d="M 333.60001,277.98727 L 333.60001,277.79734 L 333.60001,114.43296 L 333.60001,114.30628 L 333.72669,114.30628 L 414.80706,114.30628 L 414.80706,114.43296 L 414.80706,114.49621 L 414.80706,114.6231 C 406.8411,115.75579 398.35464,118.07996 387.75916,121.97101 L 387.75916,150.66575 C 401.07841,144.36885 409.75748,141.48097 418.22764,141.48097 C 426.61326,141.48097 433.47103,143.67825 438.24436,147.562 C 443.01768,151.44575 445.71895,157.02631 445.71895,163.77807 C 445.71893,170.52862 443.0942,176.04208 438.49773,179.86725 C 433.90127,183.69263 427.34663,185.8218 419.43118,185.8218 L 416.83407,185.8218 L 415.56719,185.8218 L 415.56719,213.05953 L 417.27748,213.05953 C 425.07232,213.05953 431.45039,214.90532 435.90063,218.31719 C 440.35086,221.72905 442.86847,226.71265 442.86847,232.75963 C 442.86845,238.22302 440.3698,242.99744 436.21735,246.3787 C 432.0649,249.75975 426.24548,251.76284 419.62121,251.76284 C 410.70958,251.76284 401.76081,249.13989 390.10289,243.33818 L 390.10289,271.01943 C 400.41852,274.64899 407.60542,276.66708 414.74372,277.67045 C 414.768,277.67389 414.78278,277.6672 414.80706,277.67045 L 414.74372,277.79734 L 414.74372,277.98727 L 333.72669,277.98727 L 333.60001,277.98727 z M 439.13117,277.98727 L 439.13117,277.79734 L 439.13117,277.67045 C 462.47004,273.83636 478.53116,257.3361 478.53116,235.61001 C 478.53116,227.39332 476.69441,220.64865 472.8302,215.08654 C 468.96599,209.52463 463.12746,205.10048 454.90384,201.34098 L 454.58712,201.2143 L 454.90384,201.08761 C 472.75186,194.04253 482.33181,180.66427 482.33181,162.82781 C 482.33179,137.19445 464.90543,118.68948 438.11767,114.6231 L 438.11767,114.49621 L 438.11767,114.43296 L 438.11767,114.30628 L 438.18101,114.30628 L 499.68807,114.30628 L 499.8781,114.30628 L 499.8781,114.43296 L 499.8781,277.79734 L 499.8781,277.98727 L 499.68807,277.98727 L 439.19452,277.98727 L 439.13117,277.98727 z" id="path25" style="fill: rgb(214, 37, 58); fill-opacity: 1; fill-rule: nonzero; stroke: none;"/>
      <path d="M 454.95223,201.21456 C 471.43334,208.7487 478.73209,219.10798 478.73209,235.58833 C 478.73209,257.39261 462.55656,273.98241 439.15727,277.82664 C 435.77419,278.38229 432.24137,278.35847 428.58312,278.35847 C 423.51205,278.35847 419.14689,278.43727 414.77691,277.82664 C 407.58103,276.82175 400.37121,274.80183 389.97164,271.14004 L 389.97164,243.12247 C 401.74375,249.00865 410.69021,251.5984 419.63667,251.5984 C 432.82109,251.5984 442.70986,243.59374 442.70986,232.76318 C 442.70986,220.75594 432.82109,213.22155 417.28255,213.22155 L 415.3987,213.22155 L 415.3987,185.67525 L 416.81152,185.67525 L 419.40128,185.67525 C 435.17546,185.67525 445.53475,177.19982 445.53475,163.78 C 445.53475,150.35968 434.94008,141.64886 418.22384,141.64886 C 409.74841,141.64886 401.03708,144.47401 387.61727,150.83096 L 387.61727,121.87159 C 398.25577,117.96073 406.81152,115.61599 414.81162,114.47833 C 418.85044,113.90367 422.75091,113.94598 426.70003,113.94598 C 430.66714,113.94598 434.47817,113.92521 438.12274,114.47833 C 464.97098,118.55388 482.49853,137.13294 482.49853,162.83821 C 482.49853,180.73163 472.84591,194.15144 454.95223,201.21456" id="path33" style="fill: rgb(255, 255, 255); fill-opacity: 1; fill-rule: nonzero; stroke: none;"/>
      <path d="M 750.02371,252.7131 L 707.89992,203.55813 L 707.89992,199.44066 L 722.91246,199.44066 L 722.91246,157.12685 C 722.91246,141.41793 722.92947,140.24226 724.74944,134.32299 C 728.62103,121.57432 741.78799,112.97595 757.49831,112.97595 C 767.05944,112.97595 775.76014,115.69721 787.14331,121.84412 L 787.14331,145.9783 C 778.94635,140.74152 772.76825,138.18708 767.76004,138.18708 C 757.74357,138.18708 755.72467,142.52792 755.72467,163.01794 L 755.72467,199.44066 L 785.74975,199.44066 L 785.74975,220.15406 L 755.72467,220.15406 L 755.72467,252.7131 L 750.02371,252.7131 z M 555.62086,222.24452 C 531.94363,222.24452 516.41088,209.27652 516.4109,189.24217 C 516.4109,184.46106 517.8085,179.41665 520.08485,174.86318 C 524.41049,167.12223 530.79079,162.79254 546.49932,156.87347 C 560.6149,151.40967 563.79226,148.89658 563.79224,143.88784 C 563.79224,138.65187 558.97864,135.27325 551.69353,135.27305 C 541.67631,135.27305 531.26231,138.65552 518.05784,146.16823 L 518.05784,121.84412 L 520.08485,120.89406 C 534.20044,115.20242 543.55229,112.97595 554.48067,112.97595 C 576.79119,112.97595 592.93044,127.31177 592.9305,147.11849 C 592.9305,151.67196 591.98875,155.76449 590.39673,159.40723 C 585.61502,169.42451 577.42692,175.35736 556.2543,183.0979 C 544.87061,187.42354 541.68513,189.66744 541.68517,193.99308 C 541.68517,198.77357 546.28419,201.53112 554.48067,201.53112 C 564.72541,201.53112 574.69834,198.52891 588.81313,191.0158 L 588.81313,212.67967 C 577.20242,219.05441 566.09334,222.24452 555.62086,222.24452 z M 654.37421,222.24452 C 638.21062,222.24452 625.96085,218.11023 611.61699,207.86552 L 611.61699,183.98472 C 625.50526,195.36779 635.93425,199.88397 647.08965,199.88397 C 656.65308,199.88417 660.51858,195.58549 660.51858,185.56842 L 660.51858,181.95771 C 650.72961,178.77024 647.33212,177.36734 640.50187,174.86318 C 615.00491,164.8461 604.52245,154.36484 604.52245,138.88376 C 604.52248,124.54085 616.35563,112.97595 631.38033,112.97595 C 642.53599,112.97595 650.75701,117.03423 661.91215,127.73521 C 663.50431,117.71733 668.96081,113.16608 679.20508,113.16608 C 686.71646,113.16608 694.45197,116.15511 706.06295,122.98451 L 706.06295,142.11421 C 701.73788,139.15538 698.54554,137.74357 696.498,137.74357 C 693.7651,137.74357 693.3308,139.12863 693.3308,149.1455 L 693.3308,186.2651 C 693.33082,195.82711 693.11137,198.78857 691.74719,203.11462 C 687.87555,215.63606 675.09051,222.24452 654.37421,222.24452 z M 660.51858,167.38858 L 660.51858,142.11421 C 653.23246,136.42358 650.51428,135.01968 645.50605,135.01968 C 638.44804,135.01968 634.10412,139.36457 634.10412,146.4216 C 634.10406,154.84565 639.1187,158.7373 660.51858,167.38858 z" id="path35" style="fill: rgb(208, 208, 209); fill-opacity: 1; fill-rule: nonzero; stroke: none;"/>
    </g>
  </g>
</svg>