<?xml version="1.0" encoding="UTF-8" standalone="no"?>
<!-- Created with Inkscape (http://www.inkscape.org/) -->
<svg xmlns:svg="http://www.w3.org/2000/svg" xmlns="http://www.w3.org/2000/svg" version="1.0" width="782.10767" height="187.30858" id="svg2005">
  <defs id="defs2007"/>
  <g transform="matrix(0.739494, 0, 0, 0.739494, -1.5411, -2.42037)" id="g2426">
    <g transform="matrix(1.30343, 0, 0, 1.30343, -21.0078, -8.63404)" id="g2418">
      <path d="M 356.79312,148.99748 L 382.55544,148.99748 L 382.55544,84.772555 L 356.79312,84.772555 L 356.79312,148.99748 z M 356.79312,78.241177 L 382.55544,78.241177 L 382.55544,59.856728 L 356.79312,59.856728 L 356.79312,78.241177 z" id="path1946" style="fill: rgb(163, 158, 151); fill-rule: evenodd;"/>
      <path d="M 392.23327,148.99748 L 417.75394,148.99748 L 417.75394,115.85693 C 417.75394,107.14854 420.89863,102.91535 427.30882,102.91535 C 434.32422,102.91535 436.01756,106.90653 436.01756,115.7361 L 436.01756,148.99748 L 461.53823,148.99748 L 461.53823,115.61527 C 461.53823,104.48752 461.17504,96.746806 456.21619,90.820271 C 451.983,85.740232 445.81445,83.079208 437.95256,83.079208 C 428.63934,83.079208 421.38229,86.707909 415.45575,94.206964 L 415.45575,84.772555 L 392.23327,84.772555 L 392.23327,148.99748 L 392.23327,148.99748 z" id="1" style="fill: rgb(163, 158, 151); fill-rule: evenodd;"/>
      <path d="M 472.42186,148.99748 L 497.82134,148.99748 L 497.82134,99.286649 L 508.70709,99.286649 L 508.70709,84.772555 L 497.82134,84.772555 C 497.82134,84.046885 497.70052,83.442043 497.70052,82.837555 C 497.70052,77.515508 499.9987,75.822161 506.04607,75.822161 C 506.89292,75.822161 507.73941,75.943342 508.70709,75.943342 L 508.70709,59.856728 L 494.435,59.856728 C 479.43689,59.856728 472.42186,66.388106 472.42186,80.781374 L 472.42186,84.772555 L 464.43914,84.772555 L 464.43914,99.286649 L 472.42186,99.286649 L 472.42186,148.99748 z" id="12" style="fill: rgb(163, 158, 151); fill-rule: evenodd;"/>
      <path d="M 508.22343,116.8246 C 508.22343,138.11208 521.89103,151.31586 544.50866,151.31586 C 567.12666,151.31586 580.7939,138.11208 580.7939,116.8246 C 580.7939,95.537121 567.12666,82.47472 544.50866,82.47472 C 521.89103,82.47472 508.22343,95.537121 508.22343,116.8246 z M 533.98611,116.8246 C 533.98611,105.45519 536.76796,100.25433 544.50866,100.25433 C 552.24973,100.25433 555.1524,105.45519 555.1524,116.8246 C 555.1524,128.19401 552.24973,133.5157 544.50866,133.5157 C 536.76796,133.5157 533.98611,128.19401 533.98611,116.8246 z" id="123" style="fill: rgb(163, 158, 151); fill-rule: evenodd;"/>
      <path d="M 587.68209,148.87523 L 594.95862,148.87523 L 594.95862,125.22756 L 606.84323,113.82803 L 630.24854,148.87523 L 638.61606,148.87523 L 611.93673,108.97724 L 635.70559,85.935468 L 626.36791,85.935468 L 594.95862,116.49614 L 594.95862,61.681532 L 587.68209,61.681532 L 587.68209,148.87523 z M 682.51657,139.78027 L 682.51657,140.75043 C 682.51657,146.57137 685.54823,149.50204 691.49035,149.50204 C 692.58205,149.50204 694.40118,149.38086 696.70539,148.87523 L 696.70539,143.41819 C 695.49287,143.53972 694.52236,143.53972 694.03728,143.53972 C 689.67157,143.53972 689.55004,141.84177 689.55004,137.71842 L 689.55004,103.39866 C 689.55004,90.907791 681.54642,84.359051 666.50862,84.359051 C 651.10728,84.359051 641.76961,92.363027 641.52654,104.73271 L 648.68189,104.73271 C 649.16697,95.516216 655.23063,90.78661 666.50862,90.78661 C 678.02933,90.78661 682.15303,95.031137 682.15303,104.49 C 682.15303,110.91756 679.96965,110.79637 671.11705,112.61551 C 662.74917,113.34295 655.10945,113.46449 648.43953,116.49614 C 641.89079,119.52779 638.3737,124.98519 638.3737,132.26137 C 638.3737,143.17582 646.37768,150.4722 659.23244,150.4722 C 668.08539,150.4722 675.84665,146.93492 682.51657,139.78027 z M 682.15303,115.76834 L 682.27421,124.62094 C 682.27421,136.74826 673.17854,144.02444 660.08142,144.02444 C 651.35,144.02444 645.8926,139.29519 645.8926,132.13984 C 645.8926,125.71263 650.74339,121.22574 659.96024,118.8 C 669.17673,118.31527 676.81681,117.82984 682.15303,115.76834 L 682.15303,115.76834 z M 701.67736,148.87523 L 708.9539,148.87523 L 708.9539,111.76653 C 708.9539,98.66905 716.59398,90.78661 728.11468,90.78661 C 740.96945,90.78661 743.75874,96.849916 743.75874,109.5835 L 743.75874,148.87523 L 751.03527,148.87523 L 751.03527,108.73488 C 751.03527,102.0646 750.91409,97.092633 748.48834,93.212003 C 745.09279,87.633421 738.30134,84.359051 729.56992,84.359051 C 720.35342,84.359051 713.44114,88.23968 708.71153,96.001294 L 708.71153,85.935468 L 701.67736,85.935468 L 701.67736,148.87523 z M 801.96925,139.78027 L 801.96925,140.75043 C 801.96925,146.57137 805.0009,149.50204 810.94303,149.50204 C 812.03437,149.50204 813.8535,149.38086 816.15807,148.87523 L 816.15807,143.41819 C 814.94555,143.53972 813.97504,143.53972 813.48996,143.53972 C 809.12389,143.53972 809.00271,141.84177 809.00271,137.71842 L 809.00271,103.39866 C 809.00271,90.907791 800.99909,84.359051 785.9613,84.359051 C 770.5596,84.359051 761.22228,92.363027 760.97921,104.73271 L 768.13456,104.73271 C 768.61929,95.516216 774.6833,90.78661 785.9613,90.78661 C 797.482,90.78661 801.60535,95.031137 801.60535,104.49 C 801.60535,110.91756 799.42232,110.79637 790.56972,112.61551 C 782.20185,113.34295 774.56212,113.46449 767.8922,116.49614 C 761.34346,119.52779 757.82638,124.98519 757.82638,132.26137 C 757.82638,143.17582 765.83,150.4722 778.68512,150.4722 C 787.53771,150.4722 795.29933,146.93492 801.96925,139.78027 z M 801.60535,115.76834 L 801.72689,124.62094 C 801.72689,136.74826 792.63122,144.02444 779.53409,144.02444 C 770.80267,144.02444 765.34527,139.29519 765.34527,132.13984 C 765.34527,125.71263 770.19606,121.22574 779.41291,118.8 C 788.62941,118.31527 796.26948,117.82984 801.60535,115.76834 L 801.60535,115.76834 z M 821.85783,148.87523 L 829.13437,148.87523 L 829.13437,61.681532 L 821.85783,61.681532 L 821.85783,148.87523 z" id="path1951" style="fill: rgb(163, 158, 151); fill-rule: evenodd;"/>
    </g>
    <g transform="matrix(0.430446, 0, 0, 0.430447, -1.37569, 0.874603)" id="g2393">
      <g transform="matrix(1.42076, 0, 0, 1.42076, -17.1335, -27.4307)" id="layer1">
        <g transform="matrix(3.33706, 0, 0, 3.33706, -123.505, -120.076)" id="g2419" style="fill: rgb(255, 131, 0); fill-rule: evenodd;">
          <path d="M 171.853,87.0229 L 185.9248,87.0229 C 196.5724,87.0229 198.9278,94.4212 198.9278,105.0134 L 198.9278,105.1914 C 198.9278,115.8485 196.4157,123.1818 185.7466,123.1818 L 171.853,123.1818 L 171.853,87.0229 z M 159.7776,132.9799 L 159.7776,132.9799 z M 104.3758,42.9435 C 128.0074,42.9435 148.5565,56.161 159.0368,75.6039 C 159.2184,75.772 159.3457,75.9408 159.4067,76.1105 C 159.6007,76.4801 159.7909,76.8519 159.9777,77.2259 C 169.9389,77.2133 186.0777,76.4177 194.0487,78.1865 C 198.581,79.1923 202.7325,81.614 205.2359,84.6334 C 206.6053,86.2849 207.6901,87.9246 208.5751,90.0222 C 209.0321,91.1053 210.4727,96.4866 210.6838,96.8197 C 210.6838,83.3893 217.1318,77.2262 230.6336,77.2262 L 254.6802,77.2262 L 254.6802,87.0229 L 232.593,87.0229 C 223.6018,87.0229 222.44,92.3026 222.44,101.2727 L 250.4054,101.2727 L 250.4054,110.8914 L 222.44,110.8914 L 222.44,132.8005 L 210.6838,132.8005 L 210.6838,114.632 C 210.0163,115.684 209.0618,120.0881 207.8706,122.1498 C 206.5669,124.406 205.078,126.2799 203.0911,127.8796 C 199.1205,131.0758 194.2583,132.9785 187.1716,132.9785 L 159.7799,132.9785 C 149.1965,153.7761 127.765,167.0565 104.3758,167.0565 C 70.1087,167.0565 42.3192,139.2671 42.3192,105 C 42.3192,70.7329 70.1087,42.9435 104.3758,42.9435 L 104.3758,42.9435 z" id="path2421" style="fill: rgb(255, 131, 0);"/>
        </g>
      </g>
      <g transform="matrix(1.42076, 0, 0, 1.42076, -17.1335, -27.4307)" id="g2387" style="fill: rgb(179, 179, 179);">
        <g transform="matrix(3.33706, 0, 0, 3.33706, -123.505, -120.076)" id="g2389" style="fill: rgb(179, 179, 179); fill-rule: evenodd;">
          <path d="M 112.7784,132.9799 L 112.7784,118.5651 C 112.7784,88.476 149.0824,108.1245 149.0824,94.7185 L 149.0824,93.2947 C 149.0824,88.7315 144.8477,87.0661 140.3624,87.0661 L 113.3123,87.0661 L 113.3123,77.2783 L 145.523,77.2783 C 156.5651,77.2783 161.1836,84.6812 161.1836,94.2687 C 161.1836,104.0399 154.827,109.4571 145.9827,110.6605 C 135.582,112.0763 124.8797,107.1718 124.8797,120.1668 L 124.8797,123.3701 L 159.7601,123.3701 L 159.7776,132.9799 L 112.7784,132.9799 L 112.7784,132.9799 z" id="path2391" style="fill: rgb(255, 255, 255);"/>
        </g>
      </g>
    </g>
  </g>
</svg>