<?xml version="1.0" encoding="UTF-8" standalone="no"?>
<!-- Created with Inkscape (http://www.inkscape.org/) -->
<svg xmlns:svg="http://www.w3.org/2000/svg" xmlns="http://www.w3.org/2000/svg" version="1.0" width="602.36218" height="292.35825" id="svg3046">
  <defs id="defs3048"/>
  <g transform="translate(-564.087, -520.811)" id="layer1">
    <g transform="matrix(11.5775, 0, 0, 11.5775, -5948.9, -8208.86)" id="g3060">
      <path d="M 576.40496,755.5879 L 572.99871,755.6504 C 572.99871,755.6504 572.77246,755.65415 572.71746,755.68165 C 572.60246,755.73916 572.52996,755.8379 572.52996,755.8379 L 568.71746,759.9629 C 568.71746,759.96291 568.57496,760.06665 568.43621,760.0254 C 568.26496,759.9754 568.24871,759.8379 568.24871,759.8379 L 568.18621,756.0879 C 568.18621,756.0879 568.21121,755.84915 568.12371,755.74415 C 568.05871,755.6679 567.90496,755.68165 567.90496,755.68165 L 564.40496,755.7129 C 564.40496,755.7129 564.33121,755.7229 564.21746,755.80665 C 564.06121,755.92164 564.09246,756.05665 564.09246,756.05665 L 564.09246,763.05665 L 564.09246,767.9004 C 564.09246,767.90041 564.00371,768.3929 564.56121,768.3379 C 565.0037,768.32041 565.43746,768.3379 565.81121,768.3379 C 566.24121,768.33664 566.72996,768.3404 567.21746,768.3379 C 567.5262,768.34164 567.59246,768.11915 567.59246,768.11915 L 567.68621,765.36915 C 567.68621,765.36915 567.65621,765.27165 567.68621,765.18165 C 567.71495,765.09291 567.77996,765.0254 567.77996,765.0254 L 569.09246,763.86915 C 569.09247,763.86914 569.26621,763.7429 569.46746,763.74415 C 569.62121,763.73914 569.70496,763.8154 569.81121,763.86915 C 570.66995,764.6479 571.33496,766.68415 571.96746,767.99415 C 572.2962,768.64541 572.35246,768.6729 572.90496,768.6504 C 573.42121,768.63539 575.46371,768.59165 576.21746,768.61915 C 576.36996,768.62416 576.68746,768.6454 576.77996,768.4629 C 576.90495,768.21164 576.74871,767.86915 576.74871,767.86915 L 573.21746,761.1504 C 573.21747,761.15041 573.04871,760.8129 573.02996,760.68165 C 573.00871,760.53666 573.18621,760.30665 573.18621,760.30665 L 576.68621,756.05665 C 576.6862,756.05665 576.84371,755.8429 576.71746,755.7129 C 576.60247,755.59291 576.40496,755.5879 576.40496,755.5879 z M 580.90496,756.99415 C 580.53371,757.07039 580.40496,757.5254 580.40496,757.5254 L 579.02996,761.7129 L 577.09246,767.1504 C 577.09247,767.15041 576.99621,767.54665 577.06121,767.68165 C 577.18121,767.93291 577.43621,768.05665 577.43621,768.05665 L 579.59246,768.68165 C 579.59247,768.68164 580.26496,768.87665 580.43621,768.8379 C 580.78496,768.76166 580.93621,768.30665 580.93621,768.30665 L 582.90496,762.4004 L 584.27996,758.6504 C 584.27996,758.6504 584.41871,758.4054 584.37371,758.30665 C 584.29746,758.13414 584.09246,758.0879 584.09246,758.0879 L 581.34246,757.05665 C 581.34245,757.05664 581.03621,756.96665 580.90496,756.99415 z" id="path457" style="fill: rgb(250, 175, 5); fill-opacity: 1; fill-rule: nonzero; stroke: none;"/>
      <path d="M 605.09246,755.55665 C 604.96637,755.5679 604.84059,755.6079 604.77996,755.68165 C 604.67371,755.81165 604.52997,756.36916 604.52996,756.36915 L 602.68621,762.61915 L 601.02996,767.8379 C 601.02996,767.8379 600.86996,768.2854 600.93621,768.5879 C 600.97996,768.78915 601.24871,768.83791 601.24871,768.8379 L 603.31121,768.8379 C 603.31121,768.8379 603.84246,768.84914 603.96746,768.7754 C 604.09121,768.7004 604.21746,768.27539 604.21746,768.2754 L 604.77996,766.5879 C 604.77996,766.5879 604.83622,766.28039 604.99871,766.1504 C 605.20121,765.98915 605.56121,765.99416 605.56121,765.99415 L 607.40496,766.05665 C 607.40496,766.05665 607.73621,766.05539 607.84246,766.1504 C 607.94746,766.24415 608.02996,766.61916 608.02996,766.61915 L 608.31121,768.05665 C 608.31121,768.05665 608.42496,768.58791 608.56121,768.7129 C 608.69746,768.8379 609.15497,768.80665 609.15496,768.80665 L 612.24871,768.80665 C 612.24871,768.80665 612.88996,768.8479 613.02996,768.55665 C 613.12996,768.3454 612.90497,767.52541 612.90496,767.5254 L 609.49871,756.6504 C 609.49871,756.6504 609.33621,756.10289 609.24871,755.93165 C 609.04746,755.53915 608.46747,755.55666 608.46746,755.55665 L 605.34246,755.55665 C 605.34246,755.55665 605.21855,755.5454 605.09246,755.55665 z M 596.56121,755.86915 C 596.45543,755.87024 596.31684,755.85978 596.27996,755.9004 C 596.18246,756.00914 595.93621,756.30665 595.93621,756.30665 L 592.56121,760.0254 C 592.56121,760.0254 592.17121,760.4679 592.06121,760.4629 C 591.80995,760.45289 591.87371,759.99415 591.87371,759.99415 L 591.81121,756.55665 C 591.81121,756.55664 591.84871,756.19915 591.71746,756.05665 C 591.58121,755.90915 591.09246,755.9004 591.09246,755.9004 L 588.24871,755.9004 C 588.24871,755.9004 588.05621,755.8604 587.87371,755.99415 C 587.71122,756.1154 587.71746,756.3379 587.71746,756.3379 L 587.71746,763.68165 L 587.74871,768.05665 C 587.7487,768.05665 587.68621,768.6904 588.27996,768.61915 C 588.71496,768.61041 589.12871,768.5879 589.49871,768.5879 C 589.80246,768.58789 590.10746,768.61165 590.43621,768.61915 C 591.32996,768.71416 591.21746,767.9629 591.21746,767.9629 L 591.24871,765.7754 C 591.24871,765.7754 591.27746,765.5929 591.31121,765.49415 C 591.34246,765.39666 591.43621,765.30665 591.43621,765.30665 L 592.62371,764.1504 C 592.62372,764.15039 593.19746,763.7204 593.56121,764.2754 C 594.18247,765.23665 594.83496,766.4029 595.59246,768.30665 C 595.70247,768.50291 595.77371,768.9104 596.37371,768.8379 C 596.82621,768.84041 597.24621,768.80665 597.65496,768.80665 C 598.38745,768.80539 599.08996,768.77415 599.81121,768.80665 C 600.85872,768.80664 600.31121,767.99415 600.31121,767.99415 L 596.84246,761.4004 C 596.84247,761.40039 596.66496,761.0729 596.65496,760.9629 C 596.63247,760.74414 596.87371,760.4629 596.87371,760.4629 L 600.09246,756.5879 C 600.09246,756.58789 600.46496,756.1304 600.43621,756.0254 C 600.37121,755.7854 599.84246,755.86915 599.84246,755.86915 L 596.74871,755.86915 C 596.74871,755.86915 596.66699,755.86806 596.56121,755.86915 z M 606.52996,759.2754 C 606.65871,759.2479 606.74871,759.4629 606.74871,759.4629 L 606.96746,760.36915 L 607.52996,762.3379 C 607.52996,762.3379 607.62495,762.78041 607.52996,762.93165 C 607.43371,763.0829 606.99871,763.08789 606.99871,763.0879 L 606.09246,763.0879 C 606.09246,763.0879 605.91996,763.05039 605.84246,762.9629 C 605.70246,762.8054 605.77995,762.33789 605.77996,762.3379 L 606.34246,759.4629 C 606.34246,759.4629 606.4062,759.30165 606.52996,759.2754 z" id="path461" style="fill: rgb(200, 45, 5); fill-opacity: 1; fill-rule: nonzero; stroke: none;"/>
      <path d="M 585.12371,762.49415 C 582.96746,762.49665 581.24496,764.24414 581.24871,766.4004 C 581.25121,768.5579 582.9987,770.30914 585.15496,770.30665 C 587.31246,770.30415 589.06371,768.55664 589.06121,766.4004 C 589.05746,764.2429 587.28121,762.49164 585.12371,762.49415 z M 599.40496,771.2754 C 599.35121,771.27415 599.30995,771.34541 599.31121,771.4004 L 599.31121,772.99415 C 599.31121,773.60665 598.92371,772.8054 598.31121,772.80665 L 598.06121,772.80665 C 597.62121,772.8054 597.27997,773.19416 597.27996,773.6504 L 597.27996,776.86915 C 597.27996,777.3329 597.62121,777.74416 598.06121,777.74415 L 598.31121,777.74415 C 598.66496,777.74415 598.75621,777.64416 598.93621,777.4629 C 599.13246,777.25915 599.30995,777.28165 599.31121,777.5254 C 599.31121,777.58915 599.34995,777.6504 599.40496,777.6504 L 599.96746,777.6504 C 600.02246,777.6504 600.09246,777.5879 600.09246,777.5254 L 600.09246,771.4004 C 600.09246,771.3454 600.02246,771.27415 599.96746,771.2754 L 599.40496,771.2754 z M 577.34246,771.36915 C 577.29621,771.36915 577.23371,771.40039 577.21746,771.49415 L 576.06121,777.55665 C 576.05246,777.61915 576.1087,777.64915 576.15496,777.6504 L 576.84246,777.6504 C 576.88996,777.6504 576.95121,777.62039 576.96746,777.5254 L 577.12371,776.55665 C 577.15496,776.39165 577.27871,776.24415 577.46746,776.24415 L 578.43621,776.24415 C 578.64121,776.24415 578.71745,776.41541 578.74871,776.55665 L 578.93621,777.49415 C 578.95996,777.61165 578.99871,777.6504 579.02996,777.6504 L 579.71746,777.6504 C 579.77246,777.65165 579.82746,777.61166 579.81121,777.55665 L 578.56121,771.5254 C 578.53746,771.4229 578.50621,771.36915 578.46746,771.36915 L 577.34246,771.36915 z M 580.46746,771.36915 C 580.40496,771.36915 580.37372,771.4079 580.37371,771.4629 L 580.37371,777.55665 C 580.37371,777.61915 580.41247,777.6504 580.46746,777.6504 L 581.09246,777.6504 C 581.14746,777.64915 581.18621,777.60416 581.18621,777.55665 L 581.18621,775.24415 C 581.18621,775.06415 581.30996,774.9004 581.49871,774.9004 L 581.84246,774.9004 C 581.97621,774.9004 582.05246,775.02416 582.09246,775.1504 L 582.90496,777.5254 C 582.94371,777.6429 582.96745,777.65165 582.99871,777.6504 L 583.68621,777.6504 C 583.74121,777.64915 583.76371,777.61165 583.74871,777.5879 L 582.84246,774.9004 C 582.82621,774.8679 582.81121,774.83791 582.81121,774.80665 C 582.81121,774.75915 582.84246,774.68915 582.90496,774.6504 C 583.34496,774.36665 583.62371,773.90416 583.62371,773.2754 L 583.62371,772.9629 C 583.62246,772.01165 582.93246,771.36915 582.06121,771.36915 L 580.46746,771.36915 z M 584.49871,771.36915 C 584.43621,771.36915 584.37371,771.42415 584.37371,771.49415 L 584.37371,777.5254 C 584.37371,777.5954 584.44371,777.65039 584.49871,777.6504 L 586.06121,777.6504 C 586.96371,777.6504 587.71747,776.90541 587.71746,775.9629 L 587.71746,773.0879 C 587.71746,772.1454 586.96372,771.36914 586.06121,771.36915 L 584.49871,771.36915 z M 602.34246,771.36915 C 602.27996,771.36915 602.21871,771.41666 602.21746,771.4629 L 602.21746,772.0254 C 602.21871,772.07165 602.27121,772.11916 602.34246,772.11915 L 604.02996,772.11915 C 604.09996,772.11915 604.34996,772.22039 604.24871,772.43165 L 602.09246,776.9004 C 602.07621,776.9404 602.06121,776.9779 602.06121,777.0879 L 602.06121,777.55665 C 602.05996,777.61915 602.10746,777.65041 602.15496,777.6504 L 605.18621,777.6504 C 605.24246,777.6504 605.27996,777.61039 605.27996,777.55665 L 605.27996,776.93165 C 605.27996,776.89165 605.25621,776.83791 605.18621,776.8379 L 603.27996,776.8379 C 603.16246,776.8379 603.00622,776.72789 603.09246,776.55665 L 605.24871,772.11915 C 605.28746,772.0404 605.27996,771.98665 605.27996,771.9004 L 605.27996,771.4629 C 605.28121,771.4154 605.21746,771.36916 605.15496,771.36915 L 602.34246,771.36915 z M 606.12371,771.36915 C 606.05996,771.36915 605.99871,771.42416 605.99871,771.49415 L 605.99871,777.5254 C 605.99871,777.5954 606.06996,777.6504 606.12371,777.6504 L 607.68621,777.6504 C 608.58871,777.6504 609.31122,776.90539 609.31121,775.9629 L 609.31121,773.0879 C 609.31121,772.1454 608.58872,771.36915 607.68621,771.36915 L 606.12371,771.36915 z M 610.24871,771.36915 C 610.18621,771.36915 610.12371,771.43915 610.12371,771.49415 L 610.12371,777.5254 C 610.12371,777.5879 610.18622,777.6504 610.24871,777.6504 L 610.87371,777.6504 C 610.92871,777.6504 610.99871,777.5954 610.99871,777.5254 L 610.99871,775.0879 C 610.99871,774.9079 611.13871,774.74415 611.31121,774.74415 L 612.46746,774.74415 C 612.52996,774.74415 612.59121,774.68164 612.59246,774.61915 L 612.59246,774.0879 C 612.59246,774.0329 612.52246,773.9629 612.46746,773.9629 L 611.34246,773.9629 C 611.17746,773.9629 610.99871,773.82289 610.99871,773.61915 L 610.99871,772.5254 C 610.99996,772.32915 611.18496,772.18165 611.34246,772.18165 L 612.84246,772.18165 C 612.90496,772.18165 612.9362,772.1204 612.93621,772.05665 L 612.93621,771.49415 C 612.93621,771.43165 612.90496,771.36915 612.84246,771.36915 L 610.24871,771.36915 z M 581.46746,772.1504 L 582.09246,772.1504 C 582.50121,772.1504 582.84245,772.4679 582.84246,772.9004 L 582.84246,773.43165 C 582.84246,773.8629 582.50121,774.18164 582.09246,774.18165 L 581.49871,774.18165 C 581.34996,774.18165 581.18621,774.02665 581.18621,773.8379 L 581.18621,772.49415 C 581.18621,772.3279 581.28745,772.14916 581.46746,772.1504 z M 585.59246,772.1504 L 585.84246,772.1504 C 586.37746,772.15165 586.8112,772.61664 586.81121,773.18165 L 586.81121,775.86915 C 586.81121,776.4279 586.37746,776.86916 585.84246,776.86915 L 585.59246,776.86915 C 585.41996,776.86915 585.24871,776.71414 585.24871,776.5254 L 585.24871,772.49415 C 585.24871,772.3054 585.41995,772.15041 585.59246,772.1504 z M 607.21746,772.1504 L 607.46746,772.1504 C 608.00121,772.1504 608.4362,772.6154 608.43621,773.18165 L 608.43621,775.86915 C 608.43621,776.42665 608.00121,776.86914 607.46746,776.86915 L 607.21746,776.86915 C 607.04496,776.86915 606.87246,776.71415 606.87371,776.5254 L 606.87371,772.49415 C 606.87371,772.3054 607.04495,772.15039 607.21746,772.1504 z M 577.87371,772.61915 C 577.95527,772.61915 578.02996,772.71978 578.06121,772.9004 L 578.43621,775.0254 C 578.46746,775.22165 578.33622,775.39915 578.15496,775.4004 L 577.62371,775.4004 C 577.41996,775.4004 577.31121,775.19914 577.34246,775.0254 L 577.68621,772.9004 C 577.71371,772.71978 577.79215,772.61915 577.87371,772.61915 z M 568.99871,772.7754 C 568.35496,772.7754 567.81121,773.29664 567.81121,773.9629 L 567.81121,776.5254 C 567.81121,777.20165 568.35496,777.74415 568.99871,777.74415 L 569.34246,777.74415 C 569.98621,777.74415 570.49871,777.20041 570.49871,776.5254 L 570.49871,773.99415 C 570.49871,773.32665 569.98621,772.77541 569.34246,772.7754 L 568.99871,772.7754 z M 573.31121,772.7754 C 572.67621,772.77415 572.09247,773.66914 572.09246,773.0879 L 572.09246,772.9629 C 572.09246,772.89915 572.02247,772.8679 571.96746,772.86915 L 571.40496,772.86915 C 571.34996,772.86915 571.31121,772.89916 571.31121,772.9629 L 571.31121,777.5254 C 571.31121,777.5879 571.34996,777.65042 571.40496,777.6504 L 571.96746,777.6504 C 572.02246,777.6504 572.09247,777.58791 572.09246,777.5254 L 572.09246,774.0879 C 572.09246,773.8204 572.42746,773.57291 572.68621,773.49415 C 572.98496,773.39915 573.3112,773.48291 573.31121,773.99415 L 573.31121,777.5254 C 573.31121,777.58915 573.3812,777.65042 573.43621,777.6504 L 573.99871,777.6504 C 574.05371,777.6504 574.09246,777.58791 574.09246,777.5254 L 574.09246,773.5879 C 574.09246,773.10165 573.76746,772.77539 573.31121,772.7754 z M 595.52996,772.7754 C 594.89371,772.7754 594.27996,773.66914 594.27996,773.0879 L 594.27996,772.9629 C 594.27996,772.9004 594.24121,772.86914 594.18621,772.86915 L 593.62371,772.86915 C 593.56871,772.86915 593.4987,772.9004 593.49871,772.9629 L 593.49871,777.5254 C 593.49871,777.5879 593.5687,777.65041 593.62371,777.6504 L 594.18621,777.6504 C 594.24121,777.6504 594.27996,777.5879 594.27996,777.5254 L 594.27996,774.0879 C 594.27996,773.82165 594.61496,773.57291 594.87371,773.49415 C 595.17121,773.4004 595.49996,773.48415 595.49871,773.99415 L 595.52996,777.5254 C 595.52871,777.5879 595.56871,777.65041 595.62371,777.6504 L 596.18621,777.6504 C 596.24121,777.6504 596.27996,777.5879 596.27996,777.5254 L 596.27996,773.5879 C 596.27996,773.10165 595.98497,772.77539 595.52996,772.7754 z M 564.46746,772.86915 C 564.38121,772.86915 564.32621,772.90791 564.34246,772.99415 L 565.34246,777.55665 C 565.35871,777.60415 565.41997,777.65041 565.43621,777.6504 L 566.12371,777.6504 C 566.13996,777.6504 566.1787,777.61166 566.18621,777.55665 L 567.27996,772.99415 C 567.29496,772.9079 567.27246,772.86914 567.18621,772.86915 L 566.68621,772.86915 C 566.65496,772.86915 566.59996,772.9004 566.59246,772.93165 L 565.96746,775.8379 C 565.87371,776.26165 565.67872,776.10416 565.62371,775.8379 L 565.09246,772.93165 C 565.08496,772.9004 565.02995,772.86914 564.99871,772.86915 L 564.46746,772.86915 z M 589.87371,772.86915 C 589.81871,772.86915 589.77995,772.9079 589.77996,772.9629 L 589.77996,776.9629 C 589.78121,777.3404 590.10622,777.74416 590.40496,777.74415 L 590.68621,777.74415 C 591.03996,777.74415 591.18371,777.24415 591.46746,777.24415 C 591.63996,777.24415 591.6937,777.39291 591.74871,777.5254 C 591.78746,777.6354 591.81872,777.65041 591.87371,777.6504 L 592.40496,777.6504 C 592.46871,777.6504 592.52996,777.5804 592.52996,777.5254 L 592.52996,772.9629 C 592.52996,772.9079 592.46746,772.86914 592.40496,772.86915 L 591.87371,772.86915 C 591.81996,772.86915 591.74996,772.9079 591.74871,772.9629 L 591.74871,776.30665 C 591.74996,776.65915 591.36746,776.93166 591.09246,776.93165 C 590.73121,776.93165 590.52996,776.65289 590.52996,776.3379 L 590.52996,772.9629 C 590.52996,772.9079 590.48996,772.86914 590.43621,772.86915 L 589.87371,772.86915 z M 569.09246,773.4629 L 569.27996,773.4629 C 569.56246,773.4629 569.77996,773.73416 569.77996,774.0254 L 569.77996,776.49415 C 569.77996,776.78415 569.57121,777.05665 569.27996,777.05665 L 569.09246,777.05665 C 568.80996,777.05665 568.56121,776.7929 568.56121,776.49415 L 568.56121,774.0254 C 568.56121,773.72665 568.80996,773.4629 569.09246,773.4629 z M 598.52996,773.55665 L 598.81121,773.55665 C 599.08621,773.55665 599.31121,773.91541 599.31121,774.05665 L 599.31121,776.49415 C 599.31121,776.61165 599.09497,776.99414 598.81121,776.99415 L 598.52996,776.99415 C 598.26371,776.99415 598.02995,776.76914 598.02996,776.49415 L 598.02996,774.05665 C 598.02996,773.77415 598.27122,773.55664 598.52996,773.55665 z" id="path473" style="fill: rgb(9, 86, 141); fill-opacity: 1; fill-rule: nonzero; stroke: none;"/>
      <path d="M 583.43871,763.76727 C 583.42496,763.77977 583.41496,763.78977 583.41621,763.80977 C 583.41496,763.84227 583.43746,763.87352 583.46996,763.87477 C 583.48246,763.87352 583.48871,763.87227 583.50121,763.87227 C 583.50996,763.87227 583.51371,763.87977 583.52371,763.87977 C 583.54246,763.87977 583.55121,763.87977 583.57121,763.87852 C 583.57121,763.89477 583.56996,763.90977 583.58371,763.91477 C 583.60121,763.92227 583.61996,763.91977 583.62621,763.93727 C 583.63871,763.96227 583.64371,763.97977 583.66496,763.99602 C 583.68121,764.00852 583.68496,764.02477 583.70246,764.03102 C 583.71621,764.03477 583.73246,764.02977 583.73621,764.04227 C 583.74746,764.07477 583.76871,764.09227 583.80121,764.10352 C 583.84371,764.11852 583.84621,764.15852 583.87746,764.19102 C 583.90121,764.21602 583.93121,764.21977 583.94121,764.25227 C 583.94496,764.26727 583.94246,764.27727 583.95246,764.28852 C 583.96621,764.30727 583.99246,764.29977 584.00621,764.31977 C 584.01246,764.32977 584.02496,764.32852 584.03246,764.33727 C 584.04121,764.34727 584.03746,764.35977 584.04621,764.36727 C 584.07996,764.39977 584.09871,764.42227 584.12996,764.45602 C 584.14121,764.46977 584.15621,764.46977 584.16371,764.48602 C 584.17246,764.50477 584.16246,764.52352 584.17871,764.53977 C 584.18621,764.54852 584.19496,764.54977 584.19871,764.55977 C 584.20621,764.57727 584.22621,764.57602 584.24371,764.58477 C 584.25746,764.59102 584.24871,764.60852 584.25871,764.61977 C 584.28371,764.64727 584.28621,764.67102 584.30371,764.70477 C 584.30996,764.71852 584.31246,764.72852 584.32246,764.73852 C 584.33246,764.74977 584.34871,764.74352 584.35746,764.75727 C 584.36746,764.77102 584.35496,764.78102 584.35496,764.79852 C 584.37871,764.84102 584.41121,764.85352 584.43496,764.89727 C 584.44371,764.91352 584.46371,764.91227 584.46871,764.92852 C 584.47621,764.95852 584.49371,764.97977 584.52621,764.98852 C 584.55496,764.99602 584.54871,765.04477 584.57746,765.04477 C 584.58996,765.04477 584.59996,765.03852 584.60746,765.02977 C 584.61371,765.03477 584.61246,765.04352 584.61246,765.05102 C 584.61246,765.08102 584.63871,765.08977 584.65621,765.11227 C 584.66746,765.12852 584.66121,765.14227 584.67121,765.15852 C 584.68996,765.18352 584.70871,765.19727 584.70996,765.22977 C 584.70996,765.26227 584.73621,765.27227 584.75496,765.29727 C 584.77121,765.31477 584.76871,765.33102 584.77871,765.35352 C 584.77996,765.35852 584.78871,765.35477 584.79246,765.35977 C 584.80121,765.36852 584.79621,765.37977 584.79871,765.39102 C 584.80496,765.42227 584.82871,765.42977 584.84371,765.45727 C 584.86621,765.50102 584.87871,765.52352 584.89996,765.56602 C 584.90621,765.58102 584.92746,765.57602 584.93621,765.58977 C 584.94371,765.60102 584.93996,765.61352 584.94496,765.62602 C 584.95496,765.64602 584.97871,765.64102 584.98871,765.66102 C 585.02371,765.74852 585.05746,765.79227 585.11996,765.86102 C 585.15871,765.90352 585.18246,765.92602 585.21621,765.97477 C 585.23621,766.00352 585.23996,766.04352 585.27621,766.04352 C 585.30746,766.04352 585.28121,765.97602 585.31246,765.96977 C 585.32996,765.96727 585.34371,765.97477 585.35871,765.96602 C 585.37246,765.95602 585.36871,765.94102 585.37746,765.92727 C 585.41746,765.86852 585.43621,765.82852 585.48746,765.77852 C 585.54371,765.72602 585.54621,765.66352 585.61621,765.62977 C 585.66246,765.60977 585.69121,765.58477 585.70246,765.53477 C 585.70621,765.51727 585.72371,765.51227 585.72496,765.49477 C 585.72496,765.48352 585.71121,765.47977 585.70496,765.46977 C 585.73496,765.39477 585.78746,765.37352 585.83371,765.30727 C 585.85496,765.27602 585.86371,765.25727 585.88746,765.22977 C 585.91121,765.20102 585.93746,765.19727 585.95746,765.16602 C 585.96496,765.15102 585.96621,765.13852 585.97746,765.12727 C 586.03621,765.07852 586.06246,765.04102 586.12496,764.99477 C 586.13621,764.98727 586.13246,764.97102 586.14621,764.96352 C 586.16121,764.95477 586.17996,764.96602 586.18871,764.95227 C 586.21621,764.91227 586.22871,764.87852 586.27496,764.86352 C 586.32746,764.83727 586.35121,764.81227 586.39246,764.77102 C 586.42121,764.74227 586.42621,764.69852 586.46621,764.69852 C 586.49121,764.69852 586.50496,764.69852 586.52996,764.69852 C 586.56496,764.69852 586.57246,764.65727 586.57746,764.62227 C 586.58246,764.58352 586.60496,764.56852 586.61371,764.52977 C 586.62246,764.48977 586.65121,764.47977 586.67496,764.44852 C 586.69746,764.41852 586.70746,764.38977 586.74371,764.38102 C 586.80121,764.33852 586.83496,764.31227 586.87871,764.25477 C 586.90371,764.22102 586.88621,764.18102 586.91746,764.15227 C 586.93496,764.13602 586.96496,764.16102 586.97996,764.14352 C 586.99496,764.12352 587.00621,764.10477 587.03246,764.10477 C 587.04371,764.10477 587.04621,764.11852 587.05871,764.11852 C 587.08121,764.11852 587.06871,764.08602 587.07871,764.06602 C 587.09871,764.02727 587.11246,763.99727 587.15246,763.97977 C 587.21621,763.95227 587.22121,763.89727 587.27496,763.85602 C 587.30371,763.83727 587.31371,763.81727 587.33621,763.79102 C 587.35121,763.77352 587.37371,763.78227 587.39871,763.78227 C 587.40746,763.78227 587.41121,763.78727 587.41746,763.79352 C 587.41746,763.81102 587.41871,763.82102 587.41746,763.83852 C 587.41746,763.85852 587.38746,763.86102 587.38746,763.88102 C 587.38746,763.89602 587.41246,763.89227 587.41496,763.90727 C 587.41746,763.92477 587.42746,763.93227 587.43371,763.94852 L 587.42996,763.96352 L 587.43246,763.97602 C 587.46621,763.97727 587.47871,764.00352 587.51246,764.00352 C 587.53871,764.00352 587.53996,763.96227 587.56746,763.96227 C 587.58871,763.96352 587.60246,763.96227 587.62371,763.96352 C 587.62746,763.97602 587.62621,763.98352 587.62496,763.99602 C 587.62621,764.04477 587.59246,764.06602 587.57371,764.11102 C 587.56121,764.14352 587.56121,764.16477 587.54496,764.19602 C 587.53871,764.20852 587.52496,764.20977 587.51621,764.22352 C 587.49746,764.25102 587.48996,764.26852 587.47996,764.30102 C 587.49496,764.29727 587.50246,764.28852 587.51746,764.28727 C 587.54996,764.28852 587.58121,764.31227 587.58121,764.34602 C 587.58246,764.35977 587.56871,764.36477 587.55996,764.37477 L 587.56121,764.39102 C 587.58246,764.39102 587.59496,764.40977 587.59496,764.42977 C 587.59496,764.44102 587.59496,764.44727 587.59496,764.45852 C 587.59371,764.47227 587.60621,764.47852 587.61621,764.48852 C 587.60371,764.51977 587.58496,764.52852 587.56246,764.55102 C 587.54496,764.56852 587.54496,764.58852 587.52746,764.60477 C 587.51246,764.61852 587.49746,764.62852 587.49746,764.64977 C 587.49746,764.71102 587.42996,764.72102 587.39621,764.77352 C 587.38121,764.81852 587.33371,764.83102 587.33371,764.87727 C 587.33371,764.89727 587.33371,764.90727 587.33371,764.92602 C 587.29621,764.94977 587.28496,764.97477 587.25621,765.00852 C 587.24121,765.02602 587.21871,765.02352 587.20496,765.04227 C 587.19621,765.05727 587.20246,765.07227 587.18871,765.08352 C 587.16496,765.10602 587.15746,765.12227 587.13371,765.14352 C 587.12246,765.15477 587.10496,765.15352 587.10121,765.16852 C 587.09746,765.17977 587.10246,765.18977 587.09496,765.19852 C 587.07621,765.22102 587.05121,765.22477 587.03996,765.25227 C 587.02496,765.28352 587.00371,765.29352 586.98121,765.31977 C 586.97121,765.33102 586.97621,765.34227 586.96871,765.35602 C 586.95496,765.37852 586.93496,765.38227 586.91746,765.40227 C 586.90371,765.41977 586.90746,765.43602 586.89371,765.45227 C 586.87621,765.46852 586.85996,765.47102 586.83621,765.47852 C 586.81746,765.48602 586.81496,765.50352 586.80621,765.52352 C 586.79496,765.54602 586.78496,765.55852 586.77121,765.57852 C 586.76746,765.58977 586.76996,765.59602 586.76996,765.60727 C 586.77121,765.61852 586.76246,765.62352 586.76246,765.63477 C 586.76246,765.63852 586.76621,765.63977 586.76621,765.64352 C 586.76621,765.65352 586.75496,765.65477 586.74371,765.65727 C 586.74496,765.66477 586.74871,765.66852 586.74996,765.67602 C 586.74996,765.69352 586.73121,765.69852 586.72621,765.71602 C 586.71121,765.75977 586.68996,765.78227 586.65246,765.81102 C 586.60246,765.84602 586.59496,765.91227 586.53371,765.91102 C 586.52871,765.91102 586.52496,765.91227 586.51996,765.91102 C 586.52121,765.92352 586.53121,765.92977 586.53121,765.94227 C 586.53121,765.96602 586.50996,765.97602 586.49371,765.99477 C 586.46246,766.03227 586.44871,766.05977 586.40746,766.08852 C 586.39121,766.09977 586.37871,766.10477 586.37121,766.12352 C 586.36746,766.14477 586.35871,766.15352 586.35121,766.17352 C 586.33871,766.21352 586.33996,766.26852 586.29871,766.26852 C 586.28621,766.26852 586.27746,766.26852 586.26496,766.26852 C 586.24746,766.26852 586.24246,766.28602 586.23621,766.30227 C 586.23246,766.31852 586.22246,766.32602 586.21746,766.34102 C 586.20496,766.37477 586.17496,766.37852 586.14121,766.39477 C 586.10871,766.41102 586.10996,766.44227 586.10121,766.47602 C 586.09371,766.50852 586.06121,766.51727 586.05871,766.55102 C 586.05371,766.59852 586.01246,766.61227 585.98246,766.65227 C 585.95621,766.68602 585.93746,766.70352 585.90621,766.73352 C 585.88621,766.75227 585.89746,766.78102 585.87746,766.79977 C 585.86621,766.81102 585.85246,766.80977 585.84246,766.82227 C 585.85371,766.83477 585.86746,766.83602 585.88246,766.84352 C 585.87621,766.85227 585.86621,766.85602 585.86746,766.86727 C 585.86621,766.87227 585.86746,766.87727 585.86621,766.88352 C 585.87121,766.88352 585.87496,766.88602 585.87996,766.88477 C 585.88871,766.88477 585.89246,766.87852 585.90121,766.87727 C 585.90996,766.87852 585.91371,766.87852 585.92246,766.87977 C 585.92246,766.88477 585.92371,766.88852 585.92371,766.89352 C 585.92496,766.89852 585.91996,766.89852 585.91621,766.90102 C 585.95246,766.92977 585.97496,766.95602 585.97621,767.00102 C 585.97621,767.04352 586.01496,767.05727 586.05246,767.07852 C 586.08371,767.09852 586.09121,767.12227 586.11496,767.15102 C 586.12996,767.16852 586.15371,767.16102 586.17121,767.17602 C 586.18871,767.18977 586.18371,767.21102 586.19871,767.22852 C 586.22246,767.25477 586.25621,767.25727 586.26746,767.29102 C 586.27371,767.31602 586.30246,767.31477 586.31621,767.33602 C 586.32871,767.35602 586.32371,767.37352 586.33121,767.39602 C 586.33996,767.42852 586.37371,767.42727 586.39371,767.45352 C 586.41871,767.48727 586.44371,767.49727 586.47996,767.51727 C 586.48996,767.52227 586.49871,767.52102 586.50746,767.52727 C 586.52621,767.53977 586.51246,767.57602 586.53496,767.57602 C 586.54371,767.57727 586.54746,767.57227 586.55496,767.57227 C 586.57246,767.57352 586.59121,767.57227 586.59621,767.58977 C 586.59996,767.60477 586.60121,767.62727 586.61746,767.62727 C 586.63121,767.62727 586.63371,767.60852 586.64746,767.60852 C 586.66996,767.60852 586.66871,767.64102 586.68996,767.64852 C 586.74496,767.67102 586.79121,767.67102 586.82621,767.72102 C 586.84871,767.75227 586.88496,767.73977 586.92121,767.75227 C 586.96621,767.76727 586.98871,767.79227 587.01746,767.82852 C 587.03371,767.84477 587.02871,767.86102 587.03746,767.88227 C 587.04496,767.90102 587.06871,767.89602 587.08246,767.91227 C 587.08871,767.91977 587.08621,767.93227 587.09496,767.93352 C 587.12371,767.94227 587.14496,767.93102 587.16746,767.94852 C 587.20496,767.97727 587.21371,768.01102 587.25621,768.03102 C 587.29121,768.04852 587.32746,768.06227 587.32746,768.10102 C 587.32746,768.12602 587.35246,768.12977 587.36871,768.14727 C 587.41246,768.18977 587.43496,768.21852 587.45746,768.27477 C 587.46996,768.30727 587.51246,768.30977 587.51246,768.34352 C 587.51246,768.34977 587.50871,768.35227 587.50871,768.35852 C 587.50871,768.37227 587.52121,768.37852 587.52121,768.39227 C 587.52121,768.40477 587.51621,768.41227 587.51621,768.42477 C 587.51621,768.44977 587.55371,768.45102 587.55371,768.47477 C 587.55371,768.50602 587.54246,768.52352 587.54246,768.55352 C 587.54246,768.61227 587.57496,768.64352 587.57496,768.70227 C 587.57496,768.71227 587.56746,768.71602 587.56746,768.72602 C 587.56746,768.74477 587.59121,768.74977 587.59121,768.76852 C 587.59121,768.79977 587.58496,768.82102 587.56621,768.84477 C 587.55996,768.85602 587.54371,768.85727 587.54371,768.87102 C 587.54371,768.87727 587.55496,768.87977 587.55496,768.88727 C 587.55496,768.92727 587.54871,768.96602 587.50996,768.97852 L 587.49496,768.97477 C 587.47746,768.98227 587.49121,769.00727 587.47871,769.02227 C 587.46371,769.04102 587.43996,769.03102 587.41496,769.03727 C 587.39496,769.04227 587.40371,769.06977 587.38996,769.08602 C 587.38371,769.09227 587.37621,769.08852 587.36746,769.09102 C 587.34496,769.09727 587.33871,769.12227 587.31621,769.12227 C 587.29246,769.12227 587.27996,769.12977 587.25621,769.13227 C 587.23871,769.13477 587.21871,769.14102 587.21746,769.15852 C 587.21871,769.16602 587.22121,769.16852 587.22246,769.17602 C 587.22121,769.19352 587.20996,769.20852 587.19246,769.20852 C 587.18496,769.20852 587.18121,769.20477 587.17246,769.20477 C 587.13746,769.20602 587.11871,769.21977 587.08371,769.21977 C 587.07246,769.21977 587.06371,769.21602 587.05371,769.21102 C 587.03496,769.23977 587.01746,769.26352 586.98371,769.26352 C 586.96496,769.26352 586.95371,769.26352 586.93496,769.26352 C 586.91621,769.26352 586.91121,769.24602 586.89496,769.24352 C 586.88496,769.26977 586.85871,769.27227 586.83246,769.27227 C 586.81871,769.27227 586.81621,769.25602 586.80496,769.25102 C 586.77496,769.23602 586.75496,769.23852 586.72121,769.23352 C 586.70621,769.23102 586.70746,769.21352 586.70371,769.19852 C 586.69621,769.16602 586.69496,769.13477 586.66496,769.12102 C 586.64871,769.11477 586.63121,769.12602 586.61996,769.11227 C 586.58996,769.07352 586.59496,769.02352 586.55121,769.00602 C 586.52871,768.99852 586.51121,769.00352 586.49871,768.98602 C 586.47371,768.95477 586.47496,768.92102 586.43996,768.90227 C 586.41246,768.88727 586.39246,768.88602 586.36246,768.87602 C 586.33371,768.86477 586.30371,768.85352 586.30371,768.82352 C 586.30496,768.76602 586.26871,768.73852 586.22746,768.69727 C 586.21121,768.67977 586.21121,768.66352 586.19746,768.64352 C 586.17371,768.61227 586.14996,768.59977 586.13496,768.56102 C 586.12121,768.52602 586.09746,768.51477 586.06746,768.49352 C 586.05746,768.48727 586.05871,768.47477 586.05121,768.46352 C 586.03871,768.44352 586.02121,768.43852 586.00246,768.42227 C 585.95871,768.38227 585.92246,768.36977 585.88871,768.32102 C 585.87496,768.30102 585.85246,768.30727 585.83371,768.29477 C 585.81996,768.28352 585.82746,768.26852 585.82121,768.25477 C 585.81621,768.24352 585.80871,768.23727 585.80621,768.22602 C 585.78871,768.13227 585.70121,768.10477 585.69496,768.01227 C 585.69496,768.00227 585.68371,767.99727 585.68246,767.98727 C 585.67996,767.95727 585.68496,767.93477 585.66746,767.91102 C 585.63246,767.86977 585.58621,767.86977 585.55996,767.82352 C 585.52871,767.79352 585.51121,767.77477 585.48371,767.74102 C 585.47246,767.72602 585.47621,767.70852 585.46121,767.69602 C 585.42621,767.66602 585.40246,767.64602 585.38496,767.60352 C 585.37871,767.58602 585.35996,767.57977 585.35996,767.56102 C 585.35996,767.54977 585.35996,767.54477 585.35996,767.53352 C 585.33121,767.50227 585.30746,767.49102 585.28121,767.45727 C 585.26371,767.43352 585.26746,767.41102 585.25496,767.38227 C 585.19371,767.43477 585.19371,767.51102 585.11621,767.53477 C 585.11871,767.54227 585.12371,767.54602 585.12496,767.55352 C 585.12371,767.58102 585.09371,767.58602 585.08246,767.61102 C 585.06621,767.64352 585.05621,767.66477 585.05621,767.70102 C 585.05496,767.71977 585.02871,767.71727 585.01871,767.73227 C 585.00496,767.75602 584.98121,767.75602 584.96121,767.77477 C 584.94621,767.78977 584.94371,767.80602 584.92621,767.81977 C 584.92746,767.82352 584.92871,767.82477 584.92871,767.82852 C 584.92871,767.88352 584.84996,767.87477 584.82371,767.92227 C 584.81746,767.93477 584.80621,767.93602 584.79496,767.94477 C 584.76371,767.96727 584.74996,767.98727 584.71496,768.00477 C 584.68996,768.01727 584.69371,768.04227 584.68121,768.06727 C 584.66746,768.09227 584.65246,768.10477 584.64246,768.13102 C 584.62621,768.17352 584.62246,768.20727 584.58621,768.23352 C 584.55996,768.25352 584.54246,768.26477 584.51246,768.27727 C 584.49121,768.28602 584.49496,768.30852 584.48246,768.32602 C 584.46996,768.34602 584.44871,768.34477 584.42996,768.36102 C 584.40121,768.38602 584.38371,768.40352 584.34746,768.41727 C 584.30496,768.43227 584.29621,768.47977 584.25121,768.47977 C 584.24121,768.48102 584.23996,768.46977 584.22996,768.46977 C 584.20871,768.46977 584.20246,768.48977 584.18246,768.49727 C 584.17121,768.50102 584.15996,768.49977 584.15496,768.51102 C 584.15121,768.52227 584.15621,768.53102 584.15121,768.54227 C 584.14246,768.56602 584.11746,768.56102 584.09746,768.57852 C 584.06496,768.60602 584.05246,768.64477 584.00996,768.64477 C 583.99496,768.64477 583.99246,768.63102 583.98246,768.61977 C 583.97621,768.63352 583.98246,768.64352 583.97621,768.65602 C 583.95996,768.68852 583.93121,768.69102 583.89871,768.70727 C 583.87371,768.71727 583.87621,768.74602 583.85121,768.75477 C 583.84246,768.75852 583.83371,768.75727 583.82746,768.76352 C 583.80996,768.78227 583.82246,768.80227 583.81621,768.82602 C 583.81371,768.83977 583.79871,768.83852 583.78621,768.84477 C 583.75871,768.85727 583.74246,768.86477 583.71871,768.88227 C 583.70371,768.89227 583.68996,768.89102 583.67371,768.89852 C 583.63871,768.91602 583.62746,768.93852 583.59121,768.95352 C 583.57746,768.95852 583.56621,768.95352 583.55246,768.95977 C 583.53871,768.96727 583.53746,768.98227 583.52371,768.98477 C 583.49121,768.99227 583.47371,768.99977 583.44121,769.00727 C 583.42246,769.01227 583.41621,769.03102 583.39621,769.03102 C 583.38746,769.03102 583.38246,769.02602 583.37496,769.02477 C 583.35871,769.02602 583.35996,769.04227 583.34621,769.04852 C 583.30996,769.06977 583.28496,769.07477 583.24496,769.07477 C 583.20746,769.07477 583.18871,769.06477 583.15371,769.04852 C 583.13996,769.04477 583.13621,769.02977 583.12246,769.03102 C 583.10996,769.02977 583.10246,769.03352 583.08996,769.03352 C 583.05746,769.03352 583.04371,769.00977 583.01246,769.00977 C 582.99371,769.00977 582.98371,769.01352 582.96621,769.01352 C 582.94121,769.01352 582.93121,768.99227 582.90621,768.98602 L 582.88371,768.99352 C 582.86996,768.98977 582.86871,768.97352 582.85371,768.96852 C 582.83871,768.96227 582.82621,768.95977 582.81746,768.94727 C 582.80496,768.92852 582.81496,768.90977 582.80246,768.89102 C 582.79621,768.87977 582.77871,768.88102 582.77871,768.86727 C 582.77871,768.83977 582.78996,768.82477 582.80621,768.80227 C 582.82621,768.77852 582.80496,768.75102 582.81621,768.72227 C 582.82746,768.69352 582.85496,768.68477 582.86121,768.65102 C 582.86246,768.62727 582.85496,768.60852 582.86996,768.59102 C 582.88246,768.57602 582.89871,768.57727 582.91871,768.57477 C 582.94246,768.57102 582.94496,768.54602 582.96871,768.53977 C 583.00121,768.52852 583.00996,768.50352 583.03121,768.47477 C 583.05621,768.44352 583.07121,768.42977 583.09996,768.40102 C 583.10871,768.36227 583.14371,768.35852 583.17246,768.33602 C 583.19371,768.31852 583.19746,768.29977 583.21371,768.27727 C 583.24996,768.22852 583.28746,768.21227 583.32621,768.16477 C 583.36746,768.11352 583.38746,768.07852 583.44371,768.04227 C 583.47246,768.02352 583.48746,768.00852 583.50996,767.98477 C 583.52621,767.96852 583.55121,767.96477 583.55121,767.94227 C 583.54996,767.93727 583.54746,767.93227 583.54621,767.92727 C 583.54746,767.89852 583.57871,767.89602 583.60246,767.87977 C 583.62996,767.85977 583.63996,767.84227 583.66871,767.82602 C 583.68871,767.80602 583.70621,767.80102 583.72371,767.77977 C 583.73746,767.76352 583.73371,767.74602 583.74996,767.73227 C 583.79496,767.69852 583.82746,767.67977 583.88246,767.67977 C 583.88371,767.67352 583.88746,767.67102 583.88871,767.66477 C 583.88746,767.65102 583.88746,767.64227 583.88746,767.62852 C 583.88746,767.58727 583.92996,767.57977 583.96121,767.55352 C 583.97996,767.53727 583.97871,767.51727 583.99871,767.50227 C 584.00871,767.49477 584.02371,767.49977 584.02996,767.48977 C 584.04246,767.47227 584.03871,767.45352 584.05371,767.43977 C 584.07996,767.41227 584.11746,767.40352 584.11746,767.36602 C 584.11746,767.34852 584.11746,767.33852 584.11746,767.31977 C 584.11746,767.28602 584.15496,767.28352 584.17246,767.25477 C 584.19621,767.22352 584.23246,767.22852 584.25496,767.19602 C 584.29246,767.14102 584.29121,767.08977 584.34371,767.04977 C 584.36496,767.03477 584.38371,767.03102 584.39996,767.00977 C 584.40746,767.00102 584.40496,766.98977 584.41371,766.98102 C 584.42746,766.96852 584.44746,766.97977 584.45871,766.96602 C 584.46996,766.95602 584.46371,766.94352 584.46746,766.92852 C 584.47121,766.90227 584.48246,766.88352 584.50496,766.86852 C 584.52246,766.84602 584.54246,766.84227 584.55871,766.81852 C 584.61621,766.73102 584.66621,766.69602 584.72746,766.60977 C 584.69996,766.58352 584.69871,766.55227 584.66496,766.53602 C 584.65871,766.53227 584.65121,766.53977 584.64371,766.53602 C 584.62621,766.52852 584.62621,766.51102 584.62496,766.49227 C 584.62496,766.47977 584.62621,766.47227 584.62621,766.45977 C 584.62496,766.44477 584.60996,766.44102 584.60746,766.42727 C 584.60371,766.40227 584.60621,766.36602 584.57996,766.36602 C 584.55496,766.36602 584.54246,766.38352 584.51746,766.38352 C 584.47121,766.38352 584.44371,766.36102 584.41496,766.32477 C 584.39746,766.30352 584.37621,766.29227 584.37621,766.26352 C 584.37621,766.25227 584.37746,766.24602 584.37621,766.23477 C 584.38246,766.23352 584.38871,766.23352 584.39496,766.23352 C 584.40371,766.23227 584.40996,766.23477 584.41871,766.23477 C 584.42371,766.23477 584.42621,766.23227 584.42871,766.23102 C 584.43121,766.23852 584.43371,766.24227 584.43871,766.24727 C 584.44246,766.24352 584.44871,766.24102 584.44871,766.23477 C 584.44746,766.21852 584.43371,766.21102 584.43371,766.19477 C 584.41746,766.19852 584.41496,766.21727 584.39871,766.21852 C 584.36996,766.21727 584.36246,766.18727 584.34496,766.16352 C 584.28621,766.14977 584.27621,766.10227 584.24621,766.05227 C 584.21121,765.99352 584.17371,765.97477 584.12746,765.92352 C 584.08496,765.87477 584.05496,765.84977 584.01621,765.79727 C 583.98246,765.75352 583.93246,765.73602 583.93246,765.67977 C 583.93246,765.67352 583.93621,765.66977 583.93871,765.66477 L 583.93621,765.65727 C 583.92996,765.65602 583.92621,765.65352 583.92121,765.65352 C 583.91246,765.65352 583.90996,765.66352 583.90121,765.66352 C 583.88246,765.66352 583.86746,765.66227 583.85371,765.64977 C 583.83746,765.61977 583.82746,765.58602 583.79371,765.58602 C 583.78621,765.58602 583.78246,765.59352 583.77496,765.59352 C 583.76121,765.59352 583.76996,765.57227 583.75996,765.56477 C 583.75121,765.55602 583.73621,765.55977 583.72996,765.54852 C 583.72246,765.53227 583.72246,765.51977 583.71371,765.50227 C 583.70621,765.48852 583.68996,765.49227 583.67246,765.48977 C 583.64871,765.48602 583.63121,765.47102 583.62871,765.44727 C 583.62496,765.40602 583.60371,765.38227 583.57121,765.35852 C 583.54996,765.34477 583.54121,765.33102 583.52621,765.30977 C 583.51746,765.29727 583.51746,765.27852 583.50246,765.27852 C 583.49621,765.27977 583.49246,765.28477 583.48496,765.28477 C 583.45746,765.28477 583.44621,765.26102 583.41871,765.25602 C 583.41871,765.22102 583.39871,765.20477 583.39621,765.17102 C 583.38121,765.17102 583.37496,765.15977 583.35996,765.15727 C 583.32746,765.14852 583.27996,765.15977 583.27871,765.12602 C 583.27746,765.09727 583.24996,765.09227 583.23371,765.06977 C 583.22371,765.05602 583.19871,765.06227 583.19871,765.04602 C 583.19871,765.03352 583.19871,765.02727 583.19871,765.01477 C 583.15746,764.99852 583.12246,765.00477 583.08871,764.97602 C 583.07746,764.96602 583.08246,764.95227 583.07371,764.94102 C 583.05621,764.91852 583.04996,764.90102 583.03996,764.87477 C 583.02996,764.85227 582.99996,764.86102 582.98121,764.84352 C 582.97121,764.83352 582.95996,764.83352 582.94621,764.82727 C 582.93246,764.81977 582.93246,764.79727 582.91621,764.79352 C 582.90496,764.77477 582.87746,764.78602 582.86746,764.76852 C 582.85996,764.75727 582.87121,764.74352 582.86121,764.73602 C 582.85621,764.72977 582.84621,764.73477 582.83996,764.73102 C 582.82496,764.71977 582.81746,764.70477 582.79996,764.70477 C 582.79996,764.67102 582.74871,764.66852 582.74871,764.63477 C 582.74746,764.61602 582.74746,764.60602 582.74746,764.58727 C 582.74871,764.57852 582.75371,764.57477 582.75496,764.56477 C 582.75371,764.54977 582.73246,764.55227 582.72246,764.53727 L 582.63371,764.53727 C 582.63371,764.52227 582.63371,764.51352 582.63371,764.49852 C 582.63371,764.46352 582.64621,764.44477 582.65246,764.40977 C 582.65871,764.37727 582.65621,764.35727 582.66871,764.32602 C 582.70621,764.27477 582.73246,764.25352 582.77121,764.20477 C 582.78746,764.18352 582.81496,764.18227 582.81496,764.15602 C 582.81496,764.14227 582.81496,764.13352 582.81496,764.11977 C 582.81496,764.06352 582.87621,764.05727 582.90996,764.01602 C 582.92996,763.99352 582.92246,763.96852 582.94371,763.94727 C 582.96246,763.92852 582.98371,763.93352 583.00496,763.91852 C 583.07496,763.88227 583.10121,763.83852 583.17371,763.80977 C 583.19996,763.79852 583.20121,763.76227 583.22996,763.76227 C 583.23746,763.76227 583.23996,763.76727 583.24496,763.77227 C 583.26246,763.77227 583.27121,763.77352 583.28996,763.77352 C 583.30871,763.77352 583.31746,763.75852 583.33621,763.75852 C 583.37371,763.75852 583.40121,763.76727 583.43871,763.76727" id="path477" style="fill: rgb(255, 255, 255); fill-opacity: 1; fill-rule: nonzero; stroke: none;"/>
    </g>
  </g>
</svg>