<?xml version="1.0" encoding="UTF-8" standalone="no"?>
<!-- Created with Inkscape (http://www.inkscape.org/) -->
<svg
   xmlns:svg="http://www.w3.org/2000/svg"
   xmlns="http://www.w3.org/2000/svg"
   version="1.0"
   width="727.56622"
   height="284.68549"
   id="svg2">
  <defs
     id="defs4" />
  <g
     transform="translate(-6.7738801,-5.4571349)"
     id="layer1">
    <g
       id="g4335">
      <path
         d="M 243.43464,184.31231 L 331.9873,184.31231 C 332.05637,189.44679 332.24056,193.7524 337.37505,199.20923 C 344.12127,206.48501 357.54461,210.39919 371.4745,210.39919 C 371.54357,210.39919 371.63567,210.39919 371.70475,210.39919 C 401.52161,210.30709 420.24063,194.8806 427.40128,177.79634 C 428.13806,176.0695 428.78276,174.31963 429.26627,172.56976 C 430.3254,168.7707 430.73985,165.27096 430.62472,162.00146 C 430.04911,145.30862 414.76077,135.96063 391.71313,135.96063 C 389.22648,135.96063 386.90099,136.09878 384.64457,136.306 C 360.69898,138.42426 350.26884,151.01872 345.59484,156.84395 L 299.61469,156.84395 L 339.58542,47.569148 L 397.33113,47.569148 L 413.79373,5.4571349 L 244.1484,5.4571349 L 227.63976,47.68427 L 291.25676,47.68427 L 243.43464,184.31231 z"
         id="path14546"
         style="fill:#d4003b;fill-opacity:1;fill-rule:nonzero;stroke:none" />
      <path
         d="M 508.8209,83.326367 L 373.75854,83.303345 L 357.89458,122.62938 C 364.70986,117.79421 369.95948,114.15632 382.0474,109.91979 C 384.53405,109.11393 387.06676,108.42319 389.62249,107.77851 C 399.43098,105.2458 409.72297,103.86432 420.06102,103.86432 C 455.6801,103.86432 486.53308,119.98155 482.87217,157.48864 L 508.8209,83.326367 z"
         id="path14550"
         style="fill:#d4003b;fill-opacity:1;fill-rule:nonzero;stroke:none" />
      <path
         d="M 434.5297,229.26556 C 414.47526,241.16928 389.35541,247.6392 360.73582,247.6392 C 342.86872,247.6392 328.96186,245.24464 318.09424,241.35348 L 301.033,290.14263 L 436.41771,290.14263 L 457.78455,229.08136 L 469.73433,195.00494 C 465.65897,201.63602 460.43239,208.31316 453.82432,214.64493 C 448.06817,220.17084 441.62128,225.05206 434.5297,229.26556"
         id="path14554"
         style="fill:#d4003b;fill-opacity:1;fill-rule:nonzero;stroke:none" />
      <path
         d="M 236.81276,183.93931 C 237.5035,181.98222 238.79288,178.25224 239.80596,175.32811 C 121.48249,180.34747 32.952862,189.69546 6.7738801,197.54686 C 42.623198,192.36632 124.47569,187.6693 236.81276,183.93931"
         id="path14558"
         style="fill:#d4003b;fill-opacity:1;fill-rule:nonzero;stroke:none" />
      <path
         d="M 486.01963,170.86594 L 482.75014,180.21393 C 610.58278,177.08258 671.66707,174.78012 734.34008,177.52005 C 685.50486,172.77698 583.29861,169.11607 486.01963,170.86594"
         id="path14562"
         style="fill:#d4003b;fill-opacity:1;fill-rule:nonzero;stroke:none" />
    </g>
  </g>
</svg>
