<?xml version="1.0" encoding="UTF-8" standalone="no"?>
<!-- Created with Inkscape (http://www.inkscape.org/) -->
<svg xmlns:svg="http://www.w3.org/2000/svg" xmlns="http://www.w3.org/2000/svg" version="1.0" width="698.84003" height="408.4325" id="svg1992">
  <defs id="defs1994"/>
  <g transform="matrix(0.694092, 0, 0, 0.694092, -5.57874, -3.8674)" id="g2393">
    <g transform="matrix(1.42076, 0, 0, 1.42076, -17.1335, -27.4307)" id="layer1">
      <g transform="matrix(3.33706, 0, 0, 3.33706, -123.505, -120.076)" id="Ebene_x0020_1" style="fill: rgb(255, 131, 0); fill-rule: evenodd;">
        <path d="M 171.853,87.0229 L 185.9248,87.0229 C 196.5724,87.0229 198.9278,94.4212 198.9278,105.0134 L 198.9278,105.1914 C 198.9278,115.8485 196.4157,123.1818 185.7466,123.1818 L 171.853,123.1818 L 171.853,87.0229 z M 159.7776,132.9799 L 159.7776,132.9799 z M 104.3758,42.9435 C 128.0074,42.9435 148.5565,56.161 159.0368,75.6039 C 159.2184,75.772 159.3457,75.9408 159.4067,76.1105 C 159.6007,76.4801 159.7909,76.8519 159.9777,77.2259 C 169.9389,77.2133 186.0777,76.4177 194.0487,78.1865 C 198.581,79.1923 202.7325,81.614 205.2359,84.6334 C 206.6053,86.2849 207.6901,87.9246 208.5751,90.0222 C 209.0321,91.1053 210.4727,96.4866 210.6838,96.8197 C 210.6838,83.3893 217.1318,77.2262 230.6336,77.2262 L 254.6802,77.2262 L 254.6802,87.0229 L 232.593,87.0229 C 223.6018,87.0229 222.44,92.3026 222.44,101.2727 L 250.4054,101.2727 L 250.4054,110.8914 L 222.44,110.8914 L 222.44,132.8005 L 210.6838,132.8005 L 210.6838,114.632 C 210.0163,115.684 209.0618,120.0881 207.8706,122.1498 C 206.5669,124.406 205.078,126.2799 203.0911,127.8796 C 199.1205,131.0758 194.2583,132.9785 187.1716,132.9785 L 159.7799,132.9785 C 149.1965,153.7761 127.765,167.0565 104.3758,167.0565 C 70.1087,167.0565 42.3192,139.2671 42.3192,105 C 42.3192,70.7329 70.1087,42.9435 104.3758,42.9435 L 104.3758,42.9435 z" id="path1986" style="fill: rgb(255, 131, 0);"/>
      </g>
    </g>
    <g transform="matrix(1.42076, 0, 0, 1.42076, -17.1335, -27.4307)" id="g2387" style="fill: rgb(179, 179, 179);">
      <g transform="matrix(3.33706, 0, 0, 3.33706, -123.505, -120.076)" id="g2389" style="fill: rgb(179, 179, 179); fill-rule: evenodd;">
        <path d="M 112.7784,132.9799 L 112.7784,118.5651 C 112.7784,88.476 149.0824,108.1245 149.0824,94.7185 L 149.0824,93.2947 C 149.0824,88.7315 144.8477,87.0661 140.3624,87.0661 L 113.3123,87.0661 L 113.3123,77.2783 L 145.523,77.2783 C 156.5651,77.2783 161.1836,84.6812 161.1836,94.2687 C 161.1836,104.0399 154.827,109.4571 145.9827,110.6605 C 135.582,112.0763 124.8797,107.1718 124.8797,120.1668 L 124.8797,123.3701 L 159.7601,123.3701 L 159.7776,132.9799 L 112.7784,132.9799 L 112.7784,132.9799 z" id="path2391" style="fill: rgb(255, 255, 255);"/>
      </g>
    </g>
  </g>
</svg>