<?xml version="1.0" encoding="UTF-8" standalone="no"?>
<!-- Created with Inkscape (http://www.inkscape.org/) -->

<svg
   xmlns:dc="http://purl.org/dc/elements/1.1/"
   xmlns:cc="http://creativecommons.org/ns#"
   xmlns:rdf="http://www.w3.org/1999/02/22-rdf-syntax-ns#"
   xmlns:svg="http://www.w3.org/2000/svg"
   xmlns="http://www.w3.org/2000/svg"
   xmlns:sodipodi="http://sodipodi.sourceforge.net/DTD/sodipodi-0.dtd"
   xmlns:inkscape="http://www.inkscape.org/namespaces/inkscape"
   version="1.0"
   width="602.36218"
   height="602.36218"
   id="svg2534"
   inkscape:version="0.47 r22583"
   sodipodi:docname="3sat.de.svg"
   inkscape:export-filename="D:\projekte\kasa\mythtv\chanlogos\16x16\3sat.de.png"
   inkscape:export-xdpi="2.3905883"
   inkscape:export-ydpi="2.3905883">
  <metadata
     id="metadata11">
    <rdf:RDF>
      <cc:Work
         rdf:about="">
        <dc:format>image/svg+xml</dc:format>
        <dc:type
           rdf:resource="http://purl.org/dc/dcmitype/StillImage" />
        <dc:title></dc:title>
      </cc:Work>
    </rdf:RDF>
  </metadata>
  <sodipodi:namedview
     pagecolor="#ffffff"
     bordercolor="#666666"
     borderopacity="1"
     objecttolerance="10"
     gridtolerance="10"
     guidetolerance="10"
     inkscape:pageopacity="0"
     inkscape:pageshadow="2"
     inkscape:window-width="1440"
     inkscape:window-height="851"
     id="namedview9"
     showgrid="false"
     units="cm"
     inkscape:zoom="0.89647062"
     inkscape:cx="301.18109"
     inkscape:cy="299.68634"
     inkscape:window-x="-4"
     inkscape:window-y="-4"
     inkscape:window-maximized="1"
     inkscape:current-layer="svg2534" />
  <defs
     id="defs2536">
    <inkscape:perspective
       sodipodi:type="inkscape:persp3d"
       inkscape:vp_x="0 : 121.0748 : 1"
       inkscape:vp_y="0 : 1000 : 0"
       inkscape:vp_z="602.36218 : 121.0748 : 1"
       inkscape:persp3d-origin="301.18109 : 80.716532 : 1"
       id="perspective13" />
  </defs>
  <g
     transform="translate(-433.678,382.53918)"
     id="layer1">
    <g
       transform="matrix(1.25,0,0,-1.25,34.3948,163.228)"
       id="g2509">
      <path
         d="m 333.60001,277.98727 0,-0.18993 0,-163.36438 0,-0.12668 0.12668,0 81.08037,0 0,0.12668 0,0.0633 0,0.12689 c -7.96596,1.13269 -16.45242,3.45686 -27.0479,7.34791 l 0,28.69474 c 13.31925,-6.2969 21.99832,-9.18478 30.46848,-9.18478 8.38562,0 15.24339,2.19728 20.01672,6.08103 4.77332,3.88375 7.47459,9.46431 7.47459,16.21607 -2e-5,6.75055 -2.62475,12.26401 -7.22122,16.08918 -4.59646,3.82538 -11.1511,5.95455 -19.06655,5.95455 l -2.59711,0 -1.26688,0 0,27.23773 1.71029,0 c 7.79484,0 14.17291,1.84579 18.62315,5.25766 4.45023,3.41186 6.96784,8.39546 6.96784,14.44244 -2e-5,5.46339 -2.49867,10.23781 -6.65112,13.61907 -4.15245,3.38105 -9.97187,5.38414 -16.59614,5.38414 -8.91163,0 -17.8604,-2.62295 -29.51832,-8.42466 l 0,27.68125 c 10.31563,3.62956 17.50253,5.64765 24.64083,6.65102 0.0243,0.003 0.0391,-0.003 0.0633,0 l -0.0633,0.12689 0,0.18993 -81.01703,0 -0.12668,0 z m 105.53116,0 0,-0.18993 0,-0.12689 c 23.33887,-3.83409 39.39999,-20.33435 39.39999,-42.06044 0,-8.21669 -1.83675,-14.96136 -5.70096,-20.52347 -3.86421,-5.56191 -9.70274,-9.98606 -17.92636,-13.74556 l -0.31672,-0.12668 0.31672,-0.12669 c 17.84802,-7.04508 27.42797,-20.42334 27.42797,-38.2598 -2e-5,-25.63336 -17.42638,-44.13833 -44.21414,-48.20471 l 0,-0.12689 0,-0.0633 0,-0.12668 0.0633,0 61.50706,0 0.19003,0 0,0.12668 0,163.36438 0,0.18993 -0.19003,0 -60.49355,0 -0.0634,0 z"
         id="path25"
         style="fill:#d6253a;fill-opacity:1;fill-rule:nonzero;stroke:none" />
      <path
         d="m 454.95223,201.21456 c 16.48111,7.53414 23.77986,17.89342 23.77986,34.37377 0,21.80428 -16.17553,38.39408 -39.57482,42.23831 -3.38308,0.55565 -6.9159,0.53183 -10.57415,0.53183 -5.07107,0 -9.43623,0.0788 -13.80621,-0.53183 -7.19588,-1.00489 -14.4057,-3.02481 -24.80527,-6.6866 l 0,-28.01757 c 11.77211,5.88618 20.71857,8.47593 29.66503,8.47593 13.18442,0 23.07319,-8.00466 23.07319,-18.83522 0,-12.00724 -9.88877,-19.54163 -25.42731,-19.54163 l -1.88385,0 0,-27.5463 1.41282,0 2.58976,0 c 15.77418,0 26.13347,-8.47543 26.13347,-21.89525 0,-13.42032 -10.59467,-22.13114 -27.31091,-22.13114 -8.47543,0 -17.18676,2.82515 -30.60657,9.1821 l 0,-28.95937 c 10.6385,-3.91086 19.19425,-6.2556 27.19435,-7.39326 4.03882,-0.57466 7.93929,-0.53235 11.88841,-0.53235 3.96711,0 7.77814,-0.0208 11.42271,0.53235 26.84824,4.07555 44.37579,22.65461 44.37579,48.35988 0,17.89342 -9.65262,31.31323 -27.5463,38.37635"
         id="path33"
         style="fill:#ffffff;fill-opacity:1;fill-rule:nonzero;stroke:none" />
      <path
         d="m 750.02371,252.7131 -42.12379,-49.15497 0,-4.11747 15.01254,0 0,-42.31381 c 0,-15.70892 0.017,-16.88459 1.83698,-22.80386 3.87159,-12.74867 17.03855,-21.34704 32.74887,-21.34704 9.56113,0 18.26183,2.72126 29.645,8.86817 l 0,24.13418 c -8.19696,-5.23678 -14.37506,-7.79122 -19.38327,-7.79122 -10.01647,0 -12.03537,4.34084 -12.03537,24.83086 l 0,36.42272 30.02508,0 0,20.7134 -30.02508,0 0,32.55904 -5.70096,0 z M 555.62086,222.24452 c -23.67723,0 -39.20998,-12.968 -39.20996,-33.00235 0,-4.78111 1.3976,-9.82552 3.67395,-14.37899 4.32564,-7.74095 10.70594,-12.07064 26.41447,-17.98971 14.11558,-5.4638 17.29294,-7.97689 17.29292,-12.98563 0,-5.23597 -4.8136,-8.61459 -12.09871,-8.61479 -10.01722,0 -20.43122,3.38247 -33.63569,10.89518 l 0,-24.32411 2.02701,-0.95006 c 14.11559,-5.69164 23.46744,-7.91811 34.39582,-7.91811 22.31052,0 38.44977,14.33582 38.44983,34.14254 0,4.55347 -0.94175,8.646 -2.53377,12.28874 -4.78171,10.01728 -12.96981,15.95013 -34.14243,23.69067 -11.38369,4.32564 -14.56917,6.56954 -14.56913,10.89518 0,4.78049 4.59902,7.53804 12.7955,7.53804 10.24474,0 20.21767,-3.00221 34.33246,-10.51532 l 0,21.66387 c -11.61071,6.37474 -22.71979,9.56485 -33.19227,9.56485 z m 98.75335,0 c -16.16359,0 -28.41336,-4.13429 -42.75722,-14.379 l 0,-23.8808 c 13.88827,11.38307 24.31726,15.89925 35.47266,15.89925 9.56343,2e-4 13.42893,-4.29848 13.42893,-14.31555 l 0,-3.61071 c -9.78897,-3.18747 -13.18646,-4.59037 -20.01671,-7.09453 -25.49696,-10.01708 -35.97942,-20.49834 -35.97942,-35.97942 3e-5,-14.34291 11.83318,-25.90781 26.85788,-25.90781 11.15566,0 19.37668,4.05828 30.53182,14.75926 1.59216,-10.01788 7.04866,-14.56913 17.29293,-14.56913 7.51138,0 15.24689,2.98903 26.85787,9.81843 l 0,19.1297 c -4.32507,-2.95883 -7.51741,-4.37064 -9.56495,-4.37064 -2.7329,0 -3.1672,1.38506 -3.1672,11.40193 l 0,37.1196 c 2e-5,9.56201 -0.21943,12.52347 -1.58361,16.84952 -3.87164,12.52144 -16.65668,19.1299 -37.37298,19.1299 z m 6.14437,-54.85594 0,-25.27437 c -7.28612,-5.69063 -10.0043,-7.09453 -15.01253,-7.09453 -7.05801,0 -11.40193,4.34489 -11.40193,11.40192 -6e-5,8.42405 5.01458,12.3157 26.41446,20.96698 z"
         id="path35"
         style="fill:#d0d0d1;fill-opacity:1;fill-rule:nonzero;stroke:none" />
    </g>
  </g>
</svg>
