<?xml version="1.0" encoding="UTF-8" standalone="no"?>
<!-- Created with Inkscape (http://www.inkscape.org/) -->

<svg
   xmlns:dc="http://purl.org/dc/elements/1.1/"
   xmlns:cc="http://creativecommons.org/ns#"
   xmlns:rdf="http://www.w3.org/1999/02/22-rdf-syntax-ns#"
   xmlns:svg="http://www.w3.org/2000/svg"
   xmlns="http://www.w3.org/2000/svg"
   xmlns:sodipodi="http://sodipodi.sourceforge.net/DTD/sodipodi-0.dtd"
   xmlns:inkscape="http://www.inkscape.org/namespaces/inkscape"
   version="1.0"
   width="602.36218"
   height="602.36218"
   id="svg1992"
   inkscape:version="0.47 r22583"
   sodipodi:docname="daserste.de.svg"
   inkscape:export-filename="D:\projekte\kasa\mythtv\chanlogos\16x16/daserste.de.png"
   inkscape:export-xdpi="2.3905883"
   inkscape:export-ydpi="2.3905883">
  <metadata
     id="metadata8">
    <rdf:RDF>
      <cc:Work
         rdf:about="">
        <dc:format>image/svg+xml</dc:format>
        <dc:type
           rdf:resource="http://purl.org/dc/dcmitype/StillImage" />
        <dc:title></dc:title>
      </cc:Work>
    </rdf:RDF>
  </metadata>
  <sodipodi:namedview
     pagecolor="#ffffff"
     bordercolor="#666666"
     borderopacity="1"
     objecttolerance="10"
     gridtolerance="10"
     guidetolerance="10"
     inkscape:pageopacity="0"
     inkscape:pageshadow="2"
     inkscape:window-width="1440"
     inkscape:window-height="851"
     id="namedview6"
     showgrid="false"
     showguides="true"
     inkscape:guide-bbox="true"
     units="cm"
     inkscape:zoom="0.89647062"
     inkscape:cx="301.18109"
     inkscape:cy="288.52427"
     inkscape:window-x="-4"
     inkscape:window-y="-4"
     inkscape:window-maximized="1"
     inkscape:current-layer="svg1992" />
  <defs
     id="defs1994">
    <inkscape:perspective
       sodipodi:type="inkscape:persp3d"
       inkscape:vp_x="0 : 65.427162 : 1"
       inkscape:vp_y="0 : 1000 : 0"
       inkscape:vp_z="602.36218 : 65.427162 : 1"
       inkscape:persp3d-origin="301.18109 : 43.618108 : 1"
       id="perspective10" />
  </defs>
  <g
     id="layer1"
     transform="translate(0,235.75393)">
    <path
       d="m 506.68422,76.710293 c 0,-15.652559 -7.8711,-25.558937 -24.72378,-25.558937 -17.67118,0 -27.21012,13.023071 -27.21012,31.041849 0.001,20.423265 10.26922,30.815785 27.45532,30.815785 9.19134,0 17.54752,-3.22016 24.13098,-7.88598 l -2.15645,-6.093427 c -4.42595,2.750317 -11.3354,4.421697 -17.08512,4.421697 -11.69929,0 -18.38516,-6.563272 -18.38516,-20.544098 l 0.001,-1.427598 37.85279,0 c 0.12012,-1.305355 0.12012,-2.976733 0.12012,-4.769291 z m 45.78839,-58.987559 c 17.77854,0 32.17393,14.399291 32.17393,32.175354 0,17.776063 -14.39645,32.173936 -32.17535,32.173936 -17.77465,0 -32.17146,-14.397873 -32.17146,-32.173936 0.001,-17.776063 14.39681,-32.175354 32.17288,-32.175354 z m 0,4.718977 c -15.16359,0 -27.45638,12.291732 -27.45638,27.456377 0,15.163583 12.29173,27.45496 27.45496,27.45496 15.16748,0 27.46027,-12.291377 27.46027,-27.45496 0,-15.164645 -12.29279,-27.456377 -27.45885,-27.456377 z m 12.9196,40.496101 0,-32.226022 -32.3837,11.629842 0,8.008582 10.72772,-3.882402 0,24.217086 21.65598,-7.747086 z M 138.07293,91.62974 c 0,7.887402 -6.80599,11.94307 -11.23158,11.94307 -4.88834,0 -8.59748,-4.299448 -8.59748,-9.435116 0.001,-5.484685 3.93166,-10.986733 19.82906,-10.742953 l 0,8.234999 z M 81.247495,72.043048 c 0,21.745984 -11.700359,32.122202 -25.557519,32.122202 -7.40232,0 -11.94555,-0.71397 -14.92228,-1.67138 l 0,-63.878025 c 2.85271,-0.24378 6.07464,-0.592442 9.90779,-0.592442 22.09323,0 30.570591,13.96311 30.572009,34.019645 z M 210.88434,94.502654 c 0,-19.951652 -28.78051,-15.285827 -28.78051,-29.49307 0.001,-4.056732 2.62949,-6.807047 7.29638,-6.807047 3.21803,0 6.31559,0.83622 8.1124,1.671378 0.83374,3.34311 1.91658,6.685866 3.34169,9.313937 l 5.72811,0 0,-16.487363 c -4.05531,-1.079291 -9.315,-1.549133 -14.67673,-1.549133 -13.98118,0 -22.93228,7.172362 -22.93228,16.836378 0.001,20.665275 28.53921,15.650786 28.53921,29.735431 0,5.258265 -3.34311,7.399845 -8.23748,7.399845 -4.17543,0 -7.88386,-1.07894 -10.51405,-2.26276 -0.83658,-3.117045 -2.14406,-6.564682 -3.46678,-9.315352 l -5.84716,0 0,17.550002 c 4.91102,1.30535 10.63807,1.79291 16.83354,1.79291 13.14851,0 24.6026,-7.41614 24.60366,-18.385156 z m -50.36952,10.027916 -1.7915,-4.769648 c -2.02004,0.470198 -4.30193,1.061218 -6.56575,1.183818 -0.71256,-2.14122 -0.83409,-4.526574 -0.83409,-6.807046 l 0.001,-26.742756 c 0,-10.741535 -7.64504,-16.364764 -21.26056,-16.364764 -8.60137,-0.0014 -14.92228,1.443898 -20.89062,3.708071 l 0,16.120985 5.50098,0 c 1.89744,-3.342756 3.34169,-7.172362 4.15772,-10.150158 1.56933,-1.427598 4.30086,-2.629133 8.13401,-2.629133 7.27831,0 11.1065,4.649173 11.1065,11.579172 l 0,7.293543 c -20.05654,0 -33.32481,9.664017 -33.32481,19.691574 0,9.557712 6.80953,16.487362 16.49126,16.487362 7.63973,0 15.50941,-5.72811 18.26008,-10.86378 0.34725,3.81295 1.91658,8.11347 3.69036,10.86378 7.05224,-2.28047 12.43063,-5.13567 17.325,-8.60102 z M 95.803046,70.267852 c 0,-27.595276 -14.556969,-39.416811 -41.31709,-39.416811 -9.66153,0 -20.89417,0.487559 -27.21011,0.487559 l -9.5602,0 0,4.526929 c 2.99551,1.566497 6.21709,3.237874 9.43512,4.177913 l 0.0014,63.164058 c -3.4643,0.95775 -6.56221,2.52425 -9.43654,4.07445 l 0,4.64811 9.68138,0 c 4.40433,0 13.71826,0.48791 21.95433,0.48791 26.271493,0 46.45169,-14.451025 46.45169,-42.150118 z m 397.041724,4.648109 -24.00838,0 c 0.71256,-9.192401 4.76787,-16.713424 12.53161,-16.713424 7.7687,0 11.59795,7.399842 11.47677,16.713424 z m -43.94515,31.634649 -2.0367,-6.19831 c -3.34275,1.8978 -6.32055,2.8552 -9.41846,2.8552 -4.19705,0 -5.62465,-2.50654 -5.62465,-10.497405 l 10e-4,-33.323739 15.87968,0 0,-7.156063 -15.87968,0 0,-17.427402 -8.72398,0 -4.89295,17.427402 -7.99229,0 0,7.156063 8.35725,0 0,36.300118 c 0,12.309446 4.64811,17.201336 13.96346,17.201336 5.85319,0 11.59795,-2.62913 16.36725,-6.3372 z M 401.3867,94.502654 c 0,-19.951652 -28.77803,-15.285827 -28.77803,-29.49307 0,-4.056732 2.62914,-6.807047 7.29496,-6.807047 3.2191,0 6.32091,0.83622 8.1124,1.671378 0.83764,3.34311 1.91658,6.685866 3.34311,9.313937 l 5.72705,0 0,-16.487363 c -4.05567,-1.079291 -9.31535,-1.549133 -14.6948,-1.549133 -13.96311,0 -22.90961,7.172362 -22.90961,16.836378 0,20.665275 28.53425,15.650786 28.53425,29.735431 10e-4,5.258265 -3.34311,7.399845 -8.23748,7.399845 -4.17437,0 -7.8835,-1.07894 -10.51263,-2.26276 -0.83764,-3.117045 -2.14051,-6.564682 -3.46429,-9.315352 l -5.85107,0 0,17.550002 c 4.91209,1.30535 10.63807,1.79291 16.8339,1.79291 13.14957,0 24.60224,-7.41614 24.60224,-18.385156 z M 351.1256,52.352891 c -2.50901,-0.83622 -5.72811,-1.322717 -8.58472,-1.322717 -7.29496,-0.0014 -11.94414,6.093426 -15.05977,15.163229 0.2452,-4.89189 0.71256,-10.376221 0.71256,-14.328071 -7.27724,-0.244134 -16.22338,0.487559 -22.07551,1.792559 l 0,4.770709 c 3.09898,0.487559 6.44067,1.445315 9.19488,2.403071 l 0,42.619609 c -3.34169,0.83657 -6.33826,2.14157 -9.19488,3.8133 l 0,4.66548 31.63713,0 0,-4.66548 c -2.85662,-1.55019 -5.85355,-2.85555 -9.19666,-3.8133 l 0.001,-21.135476 c 0,-9.785197 4.66583,-19.221377 11.82437,-19.221377 3.34276,0 6.31453,1.08 9.0698,2.263818 l 1.67138,-13.005354 z m -57.76653,59.577169 0,-19.342564 -6.21851,0 c -1.54665,3.464292 -3.34311,7.992284 -4.05673,11.821534 l -20.30067,0 0,-30.572005 16.24607,0 c 0.59279,2.50689 2.26275,5.379802 3.58689,7.521024 l 5.23807,0 0,-21.971693 -5.23666,0 c -1.32413,2.158937 -2.87574,4.909606 -3.58937,7.643622 l -16.245,-0.0014 0,-28.412715 20.18055,0 c 0.59386,3.46429 2.50512,8.113463 3.93556,11.230511 l 6.09342,-0.0014 0,-18.506338 -53.2428,0 0,4.526929 c 2.97674,1.54878 6.19831,3.220158 9.4213,4.177913 l 0,63.164062 c -3.46677,0.95775 -6.56575,2.50795 -9.42236,4.05708 l 0.001,4.66548 53.60918,0 z"
       style="fill:#001a4b;fill-rule:evenodd"
       id="path1985" />
  </g>
</svg>
