<?xml version="1.0" encoding="UTF-8" standalone="no"?>
<!-- Generator: Adobe Illustrator 17.0.0, SVG Export Plug-In . SVG Version: 6.00 Build 0)  -->

<svg
   xmlns:dc="http://purl.org/dc/elements/1.1/"
   xmlns:cc="http://creativecommons.org/ns#"
   xmlns:rdf="http://www.w3.org/1999/02/22-rdf-syntax-ns#"
   xmlns:svg="http://www.w3.org/2000/svg"
   xmlns="http://www.w3.org/2000/svg"
   xmlns:sodipodi="http://sodipodi.sourceforge.net/DTD/sodipodi-0.dtd"
   xmlns:inkscape="http://www.inkscape.org/namespaces/inkscape"
   version="1.1"
   id="Calque_1"
   x="0px"
   y="0px"
   width="256"
   height="256"
   viewBox="0 0 256.00001 256"
   enable-background="new 0 0 141.062 141.058"
   xml:space="preserve"
   inkscape:version="0.48.3.1 r9886"
   sodipodi:docname="fr.france24.com.svg"><metadata
   id="metadata33"><rdf:RDF><cc:Work
       rdf:about=""><dc:format>image/svg+xml</dc:format><dc:type
         rdf:resource="http://purl.org/dc/dcmitype/StillImage" /></cc:Work></rdf:RDF></metadata><defs
   id="defs31" /><sodipodi:namedview
   pagecolor="#ffffff"
   bordercolor="#666666"
   borderopacity="1"
   objecttolerance="10"
   gridtolerance="10"
   guidetolerance="10"
   inkscape:pageopacity="0"
   inkscape:pageshadow="2"
   inkscape:window-width="1920"
   inkscape:window-height="1129"
   id="namedview29"
   showgrid="false"
   inkscape:zoom="1.6730707"
   inkscape:cx="72.324108"
   inkscape:cy="68.735889"
   inkscape:window-x="0"
   inkscape:window-y="25"
   inkscape:window-maximized="1"
   inkscape:current-layer="Calque_1" />
<g
   id="g3"
   transform="matrix(1.8148049,0,0,1.8148049,0,0.00725922)">
	<path
   d="m 141.059,141.058 v -6.895 c -7.066,2.615 -13.758,4.899 -20.102,6.895 h 20.102 z"
   id="path5"
   inkscape:connector-curvature="0"
   style="fill:#00a7e3" />
	<path
   d="m 66.689,91.546 c 3.212,2.162 12.016,2.115 21.409,-0.118 11.672,-2.775 20.582,-7.937 19.834,-11.541 -0.123,-0.587 -0.525,-1.119 -1.177,-1.559 -3.238,-2.172 -12.03,-2.121 -21.403,0.111 -9.393,2.234 -17.372,6.159 -19.406,9.561 -0.426,0.698 -0.578,1.384 -0.448,1.957 0.122,0.601 0.525,1.134 1.191,1.589"
   id="path7"
   inkscape:connector-curvature="0"
   style="fill:#00a7e3" />
	<path
   d="m 95.455,126.373 c -28.467,6.753 -54.85,6.407 -65.673,-0.861 -2.638,-1.78 -4.237,-3.914 -4.758,-6.377 -0.821,-3.893 1.221,-8.404 5.902,-13.066 0.065,-0.048 0.165,-0.048 0.221,0 0.061,0.049 0.075,0.187 0.027,0.246 -2.312,3.047 -3.208,5.91 -2.66,8.484 0.434,2.087 1.821,3.93 4.107,5.452 9.934,6.687 34.715,6.882 61.656,0.507 18.963,-4.521 35.957,-11.554 46.781,-19.341 V 0 H 0 v 141.058 h 12.977 c -0.997,-1.39 -1.69,-2.877 -2.029,-4.468 -0.165,-0.801 -0.247,-1.618 -0.247,-2.431 0,-3.483 1.493,-7.212 4.448,-11.12 0.035,-0.049 0.144,-0.073 0.209,-0.01 l 0.061,0.211 c -1.664,3.062 -2.216,5.952 -1.664,8.603 0.806,3.805 3.84,6.891 8.62,9.215 h 73.224 c 0.958,-0.216 1.908,-0.415 2.872,-0.643 15.518,-3.694 30.184,-8.8 42.588,-14.812 v -17.2 c -11.64,7.356 -27.762,13.741 -45.604,17.97 M 85.111,77.344 c 14.237,-3.378 26.648,-2.225 27.674,2.587 0.184,0.911 -0.029,1.924 -0.664,2.953 -2.65,4.425 -12.008,9.186 -23.334,11.892 C 74.546,98.138 62.143,96.992 61.122,92.195 60.119,87.39 70.851,80.726 85.111,77.344 m -34.68,14.341 c 0.073,-0.04 0.17,-0.04 0.208,0.037 0.065,0.072 0.039,0.177 -0.014,0.226 -3.676,3.139 -5.322,6.105 -4.798,8.604 0.274,1.324 1.162,2.498 2.621,3.481 6.558,4.41 23.964,4.459 42.331,0.098 23.185,-5.521 40.789,-16.064 39.208,-23.556 -0.548,-2.489 -3.242,-4.444 -7.802,-5.598 -0.086,-0.04 -0.143,-0.11 -0.121,-0.221 0.021,-0.074 0.109,-0.132 0.188,-0.125 7.483,1.219 11.877,3.808 12.65,7.509 0.361,1.645 -0.051,3.454 -1.19,5.349 -4.773,7.983 -21.631,16.593 -41.947,21.419 -20.314,4.811 -39.015,4.663 -46.55,-0.403 -1.795,-1.219 -2.872,-2.648 -3.22,-4.324 -0.77,-3.708 2.139,-8.025 8.436,-12.496"
   id="path9"
   inkscape:connector-curvature="0"
   style="fill:#00a7e3" />
	<polyline
   points="141.062,134.162 141.062,125.6 141.059,125.602 141.059,134.164 141.062,134.162  "
   id="polyline11"
   style="fill:#ffffff" />
	<path
   d="m 95.598,141.058 h 25.359 c 6.344,-1.995 13.035,-4.279 20.102,-6.895 v -8.561 c -12.404,6.013 -27.07,11.118 -42.588,14.811 -0.964,0.23 -1.915,0.429 -2.873,0.645"
   id="path13"
   inkscape:connector-curvature="0"
   style="fill:#ffffff" />
	<path
   d="m 13.755,131.843 c -0.552,-2.65 0,-5.54 1.664,-8.603 l -0.061,-0.21 c -0.065,-0.065 -0.174,-0.04 -0.209,0.008 -2.955,3.909 -4.449,7.638 -4.449,11.121 0,0.812 0.082,1.629 0.247,2.431 0.34,1.591 1.033,3.078 2.03,4.468 h 9.398 c -4.78,-2.324 -7.814,-5.41 -8.62,-9.215"
   id="path15"
   inkscape:connector-curvature="0"
   style="fill:#ffffff" />
	<path
   d="m 45.215,108.504 c 7.537,5.066 26.236,5.215 46.551,0.403 20.316,-4.826 37.174,-13.436 41.947,-21.419 1.139,-1.895 1.55,-3.704 1.19,-5.349 -0.774,-3.7 -5.167,-6.29 -12.651,-7.509 -0.078,-0.007 -0.166,0.051 -0.188,0.125 -0.021,0.11 0.035,0.181 0.121,0.221 4.559,1.153 7.254,3.108 7.802,5.598 1.581,7.492 -16.023,18.033 -39.208,23.556 -18.366,4.361 -35.773,4.312 -42.331,-0.098 -1.459,-0.983 -2.347,-2.157 -2.62,-3.481 -0.525,-2.498 1.121,-5.465 4.798,-8.604 0.052,-0.049 0.078,-0.153 0.013,-0.226 -0.038,-0.077 -0.134,-0.077 -0.208,-0.037 -6.297,4.471 -9.205,8.788 -8.436,12.495 0.348,1.677 1.426,3.107 3.22,4.325"
   id="path17"
   inkscape:connector-curvature="0"
   style="fill:#ffffff" />
	<polyline
   points="141.062,108.399 141.062,101.415 141.059,101.418 141.059,108.402 141.062,108.399  "
   id="polyline19"
   style="fill:#ffffff" />
	<path
   d="m 32.621,120.252 c -2.286,-1.521 -3.673,-3.365 -4.107,-5.452 -0.548,-2.574 0.348,-5.438 2.66,-8.484 0.048,-0.059 0.034,-0.197 -0.027,-0.246 -0.056,-0.047 -0.156,-0.047 -0.221,0 -4.68,4.662 -6.722,9.173 -5.902,13.066 0.521,2.463 2.12,4.597 4.758,6.377 10.823,7.269 37.206,7.614 65.673,0.861 17.842,-4.229 33.964,-10.614 45.603,-17.972 v -6.983 c -10.824,7.786 -27.818,14.819 -46.781,19.341 -26.941,6.374 -51.722,6.18 -61.656,-0.508"
   id="path21"
   inkscape:connector-curvature="0"
   style="fill:#ffffff" />
	<path
   d="m 88.787,94.776 c 11.326,-2.706 20.683,-7.467 23.334,-11.892 0.635,-1.03 0.848,-2.042 0.664,-2.953 -1.025,-4.812 -13.438,-5.965 -27.674,-2.587 -14.26,3.382 -24.993,10.046 -23.99,14.851 1.022,4.797 13.425,5.943 27.666,2.581 M 65.946,88 c 2.034,-3.402 10.013,-7.327 19.406,-9.561 9.373,-2.232 18.165,-2.283 21.403,-0.111 0.651,0.439 1.054,0.972 1.177,1.559 0.748,3.604 -8.162,8.766 -19.834,11.541 -9.393,2.233 -18.197,2.28 -21.409,0.118 C 66.023,91.091 65.62,90.558 65.498,89.957 65.368,89.384 65.52,88.699 65.946,88"
   id="path23"
   inkscape:connector-curvature="0"
   style="fill:#ffffff" />
	<path
   d="m 58.126,30.026 1.796,-6.729 1.87,6.729 H 58.126 z M 57.025,17.649 50.677,36.422 h 5.694 l 0.654,-2.49 h 5.764 l 0.696,2.49 h 5.778 L 62.924,17.649 H 57.025 z M 17.623,36.422 h 5.822 V 30.07 h 6.358 v -4.395 h -6.358 v -3.67 h 7.987 V 17.624 H 17.623 v 18.798 z m 105.8,-14.417 v -4.381 h -14.626 v 18.798 h 14.626 v -4.373 h -8.804 v -2.846 h 7.295 v -4.364 h -7.295 v -2.834 h 8.804 z m -81.001,3.723 h -3.34 v -3.765 h 3.34 c 1.156,0 1.729,0.631 1.729,1.886 0,1.239 -0.572,1.879 -1.729,1.879 m 6.89,-1.745 c 0,-4.089 -2.329,-6.334 -6.553,-6.334 h -9.05 v 18.773 h 5.373 v -6.386 h 1.856 c 0.246,0.497 3.119,6.386 3.119,6.386 h 5.791 c 0,0 -3.269,-6.481 -3.769,-7.388 1.979,-0.864 3.233,-2.763 3.233,-5.051 m 48.817,8.202 c -2.533,0 -3.371,-2.617 -3.371,-5.154 0,-2.523 0.838,-5.163 3.371,-5.163 2.254,0 2.759,2.088 2.867,2.771 h 5.306 c -0.47,-4.714 -3.143,-7.426 -8.019,-7.435 -5.457,0 -8.996,3.912 -8.996,9.827 0,5.558 3.254,9.833 8.996,9.833 5.181,0 8.093,-4.023 8.093,-7.803 h -5.369 c -0.328,1.76 -1.034,3.124 -2.878,3.124 M 81.518,27.675 H 81.467 L 76.305,17.649 h -5.6 v 18.773 h 5.178 V 26.157 h 0.039 l 5.448,10.265 h 5.314 V 17.649 h -5.166 v 10.026 z"
   id="path25"
   inkscape:connector-curvature="0"
   style="fill:#ffffff" />
	<path
   d="m 58.358,60.351 h -7.81 l 7.81,-9.503 v 9.503 z m 9.57,0 V 41.434 H 58.776 L 44.147,59.486 v 7.605 H 30.236 v -0.048 c 6.032,-3.905 14.025,-6.639 14.025,-15.331 0,-7.211 -5.281,-10.661 -13.068,-10.661 -8.605,0 -14.077,5.346 -13.57,14.672 h 8.653 c -0.108,-4.146 1.144,-6.978 4.835,-6.978 2.137,0 3.858,1.076 3.858,4.14 0,2.498 -2.682,3.843 -4.319,4.916 -4.107,2.651 -8.688,5.236 -11.379,9.188 -1.569,2.29 -2.481,5.135 -2.294,8.395 H 44.722 V 68.63 h 13.637 v 6.754 h 9.569 V 68.63 h 4.33 v -8.279 h -4.33 z"
   id="path27"
   inkscape:connector-curvature="0"
   style="fill:#ffffff" />
</g>
</svg>