<?xml version="1.0" encoding="UTF-8" standalone="no"?>
<!-- Generator: Adobe Illustrator 13.0.2, SVG Export Plug-In . SVG Version: 6.00 Build 14948)  -->

<svg
   xmlns:dc="http://purl.org/dc/elements/1.1/"
   xmlns:cc="http://creativecommons.org/ns#"
   xmlns:rdf="http://www.w3.org/1999/02/22-rdf-syntax-ns#"
   xmlns:svg="http://www.w3.org/2000/svg"
   xmlns="http://www.w3.org/2000/svg"
   xmlns:sodipodi="http://sodipodi.sourceforge.net/DTD/sodipodi-0.dtd"
   xmlns:inkscape="http://www.inkscape.org/namespaces/inkscape"
   version="1.1"
   id="Ebene_1"
   x="0px"
   y="0px"
   width="256"
   height="256"
   viewBox="0 0 256 256"
   enable-background="new 0 0 803.078 133.875"
   xml:space="preserve"
   inkscape:version="0.48.3.1 r9886"
   sodipodi:docname="hd.orf1.orf.at.svg"><metadata
   id="metadata21"><rdf:RDF><cc:Work
       rdf:about=""><dc:format>image/svg+xml</dc:format><dc:type
         rdf:resource="http://purl.org/dc/dcmitype/StillImage" /></cc:Work></rdf:RDF></metadata><defs
   id="defs19" /><sodipodi:namedview
   pagecolor="#ffffff"
   bordercolor="#666666"
   borderopacity="1"
   objecttolerance="10"
   gridtolerance="10"
   guidetolerance="10"
   inkscape:pageopacity="0"
   inkscape:pageshadow="2"
   inkscape:window-width="1920"
   inkscape:window-height="1129"
   id="namedview17"
   showgrid="false"
   inkscape:zoom="3.5703125"
   inkscape:cx="128"
   inkscape:cy="128"
   inkscape:window-x="0"
   inkscape:window-y="25"
   inkscape:window-maximized="1"
   inkscape:current-layer="layer2" />

<g
   inkscape:groupmode="layer"
   id="layer1"
   inkscape:label="Logo"
   sodipodi:insensitive="true"
   style="display:inline"><g
     id="g3097"><rect
       width="100.00021"
       height="42.675804"
       id="rect5"
       x="-4.4727997e-07"
       y="106.6621"
       style="fill:#d32824" /><path
       d="m 72.645616,139.87448 h 5.847581 v -8.00696 h 11.062398 v -5.59575 H 78.493197 v -4.5626 h 13.562857 v -5.6034 H 72.645616 v 23.76871 z M 27.369575,128.00016 c 0,3.74559 -3.232682,6.73919 -6.689143,6.73919 -3.496627,0 -6.691694,-2.9936 -6.691694,-6.73919 0,-3.75069 3.195067,-6.73919 6.691694,-6.73919 3.45678,0 6.689143,2.9885 6.689143,6.73919 m 6.042034,0 c 0,-6.96807 -5.65823,-12.34514 -12.731177,-12.34514 -7.072947,0 -12.7359588,5.37675 -12.7359588,12.34514 0,6.96839 5.6633308,12.34259 12.7359588,12.34259 7.072628,0 12.731177,-5.37452 12.731177,-12.34259 m 8.432515,11.88898 h 5.857464 v -6.92822 h 4.373254 l 4.597351,6.92822 h 7.301827 l -5.89221,-8.33051 c 2.776517,-1.21261 4.716573,-3.82273 4.716573,-7.04521 0,-4.72933 -3.496627,-8.40765 -8.821101,-8.40765 H 41.843806 v 23.78337 z m 11.78952,-12.53418 h -5.932056 v -5.64069 h 5.932056 c 2.545088,0 3.307276,1.24768 3.307276,2.79915 0,1.59386 -0.762188,2.84154 -3.307276,2.84154"
       id="path7"
       inkscape:connector-curvature="0"
       style="fill:#ffffff" /><rect
       x="100.00021"
       width="100.00021"
       height="42.675804"
       id="rect9"
       y="106.6621"
       style="fill:#007787" /><path
       d="m 184.15642,140.28761 c 4.72199,0 8.43761,-2.61012 8.43761,-7.1077 v -0.0896 c 0,-4.2636 -3.94482,-5.6882 -7.61581,-6.78892 -3.15777,-0.96142 -6.09655,-1.8355 -6.09655,-4.0819 v -0.087 c 0,-1.97735 1.79055,-3.4418 4.59225,-3.4418 2.29135,0 4.80647,0.87153 7.00792,2.29613 l 1.60885,-2.6624 c -2.43065,-1.6063 -5.64325,-2.6149 -8.52719,-2.6149 -4.68215,0 -8.0739,2.70702 -8.0739,6.78637 v 0.0921 c 0,4.35572 4.12908,5.64069 7.83992,6.69424 3.11792,0.86929 5.91739,1.78577 5.91739,4.17147 v 0.0921 c 0,2.29358 -2.06692,3.76058 -4.90624,3.76058 -2.79915,0 -5.63847,-1.09818 -8.20587,-3.0258 l -1.79055,2.52022 c 2.65985,2.15714 6.41787,3.48675 9.81217,3.48675 m -36.08612,-0.45808 h 3.53137 v -13.57274 c 0,-4.44785 3.02835,-7.42902 7.1077,-7.42902 4.16892,0 6.55972,2.75197 6.55972,7.15487 v 13.84689 h 3.52659 v -14.71841 c 0,-5.63847 -3.34712,-9.4934 -9.07516,-9.4934 -4.07935,0 -6.55973,2.06693 -8.11885,4.6321 v -4.12397 h -3.53137 v 23.70368 z m -11.73469,0 h 3.53392 v -23.70368 h -3.53392 v 23.70368 z m -25.35748,-13.24919 c 0.50813,-4.58747 3.62605,-7.97922 7.7054,-7.97922 4.67194,0 7.15264,3.6659 7.56577,7.97922 h -15.27117 z m 0,2.83932 h 18.80254 c 0.045,-0.54797 0.045,-0.91392 0.045,-1.23525 0,-6.97317 -4.0344,-12.56669 -11.05252,-12.56669 -6.54984,0 -11.36619,5.5014 -11.36619,12.38244 0,7.38152 5.31714,12.37734 11.82937,12.37734 4.49534,0 7.37674,-1.788 9.76754,-4.44785 l -2.20145,-1.97002 c -1.92508,2.01465 -4.21865,3.34712 -7.47365,3.34712 -4.17912,0 -7.84278,-2.88649 -8.35059,-7.88709"
       id="path11"
       inkscape:connector-curvature="0"
       style="fill:#ffffff" /></g></g><g
   inkscape:groupmode="layer"
   id="layer2"
   inkscape:label="HD"
   sodipodi:insensitive="true"
   style="display:inline"><g
     id="g3103"><path
       d="m 250.13776,127.99761 c 0,3.46411 -2.58494,6.32319 -6.89348,6.32319 h -5.10038 v -12.6416 h 5.10038 c 4.30822,0 6.89348,2.85653 6.89348,6.31841 m 5.86224,0 c 0,-6.31809 -4.87628,-11.95146 -12.75604,-11.95146 h -10.91799 v 23.90547 h 10.91799 c 7.73058,0 12.75604,-5.63082 12.75604,-11.95401 m -29.19264,11.95401 v -23.90547 h -5.86256 v 8.86573 h -9.74268 v -8.86573 h -5.86256 v 23.90547 h 5.86256 v -9.40127 h 9.74268 v 9.40127 h 5.86256 z"
       id="path13"
       inkscape:connector-curvature="0"
       style="fill:#d32824" /><path
       d="m 211.2324,142.45431 h -2.42554 v 6.88359 h 42.6758 v -9.28427 c -0.75709,0.46317 -1.55912,0.87152 -2.42555,1.19795 v 5.66078 H 211.2324 v -4.45805 z m 37.82439,-27.66859 c 0.86675,0.32388 1.66847,0.72458 2.42555,1.17564 v -9.29926 h -42.6758 v 6.96807 h 2.42554 v -4.54252 h 37.8244 v 5.69807 z"
       id="path15"
       inkscape:connector-curvature="0"
       style="fill:#d32824" /></g></g></svg>