<?xml version="1.0" encoding="UTF-8" standalone="no"?>
<!-- Generator: Adobe Illustrator 15.0.0, SVG Export Plug-In . SVG Version: 6.00 Build 0)  -->

<svg
   xmlns:dc="http://purl.org/dc/elements/1.1/"
   xmlns:cc="http://creativecommons.org/ns#"
   xmlns:rdf="http://www.w3.org/1999/02/22-rdf-syntax-ns#"
   xmlns:svg="http://www.w3.org/2000/svg"
   xmlns="http://www.w3.org/2000/svg"
   xmlns:xlink="http://www.w3.org/1999/xlink"
   xmlns:sodipodi="http://sodipodi.sourceforge.net/DTD/sodipodi-0.dtd"
   xmlns:inkscape="http://www.inkscape.org/namespaces/inkscape"
   version="1.1"
   id="svg11358"
   x="0px"
   y="0px"
   width="256"
   height="256"
   viewBox="0 0 256 256"
   enable-background="new 0 0 681.143 204.084"
   xml:space="preserve"
   inkscape:version="0.48.3.1 r9886"
   sodipodi:docname="hd.orf2.orf.at.svg"><metadata
   id="metadata26"><rdf:RDF><cc:Work
       rdf:about=""><dc:format>image/svg+xml</dc:format><dc:type
         rdf:resource="http://purl.org/dc/dcmitype/StillImage" /></cc:Work></rdf:RDF></metadata><defs
   id="defs24"><linearGradient
     y2="20.0408"
     x2="451.70929"
     y1="20.0408"
     x1="626.51923"
     gradientUnits="userSpaceOnUse"
     id="path3601_1_"><stop
       id="stop12"
       style="stop-color:#FFFFFF"
       offset="0" /><stop
       id="stop14"
       style="stop-color:#000000"
       offset="1" /></linearGradient><linearGradient
     inkscape:collect="always"
     xlink:href="#path3601_1_"
     id="linearGradient3247"
     gradientUnits="userSpaceOnUse"
     x1="626.51923"
     y1="20.0408"
     x2="451.70929"
     y2="20.0408" /></defs><sodipodi:namedview
   pagecolor="#ffffff"
   bordercolor="#666666"
   borderopacity="1"
   objecttolerance="10"
   gridtolerance="10"
   guidetolerance="10"
   inkscape:pageopacity="0"
   inkscape:pageshadow="2"
   inkscape:window-width="1920"
   inkscape:window-height="1129"
   id="namedview22"
   showgrid="false"
   inkscape:zoom="1.0422704"
   inkscape:cx="608.85597"
   inkscape:cy="86.033021"
   inkscape:window-x="0"
   inkscape:window-y="25"
   inkscape:window-maximized="1"
   inkscape:current-layer="layer4" />

<g
   inkscape:groupmode="layer"
   id="layer3"
   inkscape:label="Logo"
   sodipodi:insensitive="true"
   style="display:inline"><g
     id="layer1"
     transform="matrix(0.27505187,0,0,0.27505187,-23.351077,122.52416)"><g
       id="g13505"><path
         id="path3589"
         d="M 561.975,-82.001 H 766.057 V 122.083 H 561.975 V -82.001 z"
         inkscape:connector-curvature="0"
         style="fill:#ffffff" /><path
         id="path3591"
         d="M 84.897,-82.001 H 561.579 V 122.083 H 84.897 V -82.001 z"
         inkscape:connector-curvature="0"
         style="fill:#ec1b24" /><path
         id="path3593"
         d="m 244.185,20.046 c 0,-33.324 -27.006,-59.042 -60.709,-59.042 -33.712,0 -60.718,25.718 -60.718,59.042 0,33.314 27.006,59.022 60.718,59.022 33.703,0 60.709,-25.708 60.709,-59.022 m -28.815,0 c 0,17.922 -15.402,32.226 -31.894,32.226 -16.681,0 -31.903,-14.304 -31.903,-32.226 0,-17.932 15.223,-32.234 31.903,-32.234 16.492,-10e-4 31.894,14.302 31.894,32.234"
         inkscape:connector-curvature="0"
         style="fill:#ffffff" /><path
         id="path3595"
         d="m 284.377,76.899 h 27.916 V 43.764 h 20.839 l 21.929,33.135 h 34.792 L 361.767,37.067 c 13.223,-5.797 22.469,-18.291 22.469,-33.684 0,-22.639 -16.672,-40.201 -42.049,-40.201 h -57.81 V 76.899 z M 340.558,16.967 H 312.292 V -10.02 h 28.266 c 12.144,0 15.771,5.977 15.771,13.403 0,7.607 -3.628,13.584 -15.771,13.584"
         inkscape:connector-curvature="0"
         style="fill:#ffffff" /><path
         id="path3597"
         d="m 431.171,76.833 h 27.886 V 38.546 h 52.705 V 11.766 H 459.057 V -10.04 h 64.66 V -36.818 H 431.171 V 76.833 z"
         inkscape:connector-curvature="0"
         style="fill:#ffffff" /><path
         id="path3599"
         d="m 706.003,-3.266 c 0,-20.574 -16.861,-38.184 -43.572,-38.184 -20.178,0 -35.807,7.777 -48.215,27.991 L 639.032,-1.6 c 5.4,-9.634 12.979,-14.455 22.262,-14.455 9.283,0 16.197,6.119 16.197,12.418 0,4.263 -1.895,8.346 -7.672,12.788 l -52.951,41.906 v 26.135 h 88.756 V 50.68 h -47.078 l 27.66,-20.943 C 698.046,20.842 706.003,9.9 706.003,-3.266"
         inkscape:connector-curvature="0"
         style="fill:#ffffff" /><linearGradient
         id="linearGradient3176"
         gradientUnits="userSpaceOnUse"
         x1="626.51923"
         y1="20.0408"
         x2="451.70929"
         y2="20.0408"><stop
           offset="0"
           style="stop-color:#FFFFFF"
           id="stop3178" /><stop
           offset="1"
           style="stop-color:#000000"
           id="stop3180" /></linearGradient><path
         id="path3601"
         d="m 561.6,-82.001 h 71.749 V 122.083 H 561.6 V -82.001 z"
         inkscape:connector-curvature="0"
         style="fill:url(#linearGradient3247)" /><path
         id="path3603"
         d="M 84.897,-82.001 H 561.579 V 122.083 H 84.897 V -82.001 z"
         inkscape:connector-curvature="0"
         style="fill:#e2001a" /><path
         id="path3605"
         d="m 244.185,20.046 c 0,-33.324 -27.006,-59.042 -60.709,-59.042 -33.712,0 -60.718,25.718 -60.718,59.042 0,33.314 27.006,59.022 60.718,59.022 33.703,0 60.709,-25.708 60.709,-59.022 m -28.815,0 c 0,17.922 -15.402,32.226 -31.894,32.226 -16.681,0 -31.903,-14.304 -31.903,-32.226 0,-17.932 15.223,-32.234 31.903,-32.234 16.492,-10e-4 31.894,14.302 31.894,32.234"
         inkscape:connector-curvature="0"
         style="fill:#ffffff" /><path
         id="path3607"
         d="m 284.377,76.899 h 27.916 V 43.764 h 20.839 l 21.929,33.135 h 34.792 L 361.767,37.067 c 13.223,-5.797 22.469,-18.291 22.469,-33.684 0,-22.639 -16.672,-40.201 -42.049,-40.201 h -57.81 V 76.899 z M 340.558,16.967 H 312.292 V -10.02 h 28.266 c 12.144,0 15.771,5.977 15.771,13.403 0,7.607 -3.628,13.584 -15.771,13.584"
         inkscape:connector-curvature="0"
         style="fill:#ffffff" /><path
         id="path3609"
         d="m 431.171,76.833 h 27.886 V 38.546 h 52.705 V 11.766 H 459.057 V -10.04 h 64.66 V -36.818 H 431.171 V 76.833 z"
         inkscape:connector-curvature="0"
         style="fill:#ffffff" /><path
         id="path3611"
         d="m 706.003,-3.266 c 0,-20.574 -16.861,-38.184 -43.572,-38.184 -20.178,0 -35.807,7.777 -48.215,27.991 L 639.032,-1.6 c 5.4,-9.634 12.979,-14.455 22.262,-14.455 9.283,0 16.197,6.119 16.197,12.418 0,4.263 -1.895,8.346 -7.672,12.788 l -52.951,41.906 v 26.135 h 88.756 V 50.68 h -47.078 l 27.66,-20.943 C 698.046,20.842 706.003,9.9 706.003,-3.266"
         inkscape:connector-curvature="0"
         style="fill:#e2001a" /></g></g></g><g
   inkscape:groupmode="layer"
   id="layer4"
   inkscape:label="HD"
   style="display:inline"
   sodipodi:insensitive="true"><g
     id="g3270"><path
       d="m 217.33906,143.86635 v -31.66188 h -7.76475 v 11.74764 h -12.90634 v -11.74764 h -7.76434 v 31.66188 h 7.76434 v -12.45276 h 12.90614 v 12.45276 h 7.76495 z M 256,128.03541 c 0,-8.36967 -6.45431,-15.83094 -16.88985,-15.83094 h -14.4706 v 31.66188 h 14.4706 c 10.23452,0 16.88985,-7.46147 16.88985,-15.83094 m -7.76434,0 c 0,4.58739 -3.42869,8.36947 -9.12531,8.36947 h -6.75614 v -16.73914 h 6.75614 c 5.69641,0 9.12531,3.78207 9.12531,8.36967"
       id="path4247"
       inkscape:connector-curvature="0"
       style="fill:#e2001a" /><path
       id="path16"
       d="m 246.70037,103.11141 v 7.54525 c 1.15008,0.42709 2.21166,0.95789 3.21452,1.55829 V 99.89668 h -56.52058 v 9.23043 h 3.21473 v -6.0157"
       inkscape:connector-curvature="0"
       style="fill:#e2001a" /><g
       transform="matrix(0.37317742,0,0,0.37317002,-118.83845,31.332715)"
       id="g8207"><path
         d="m 836.687,333.958 h 151.459 v -32.941 c -2.694,1.63 -5.542,3.082 -8.615,4.247 v 20.08 H 845.303 v -15.81 h -8.615"
         id="path4249"
         inkscape:connector-curvature="0"
         style="fill:#e2001a" /></g></g></g></svg>