<?xml version="1.0" encoding="UTF-8" standalone="no"?>
<!-- Generator: Adobe Illustrator 15.0.2, SVG Export Plug-In . SVG Version: 6.00 Build 0)  -->

<svg
   xmlns:dc="http://purl.org/dc/elements/1.1/"
   xmlns:cc="http://creativecommons.org/ns#"
   xmlns:rdf="http://www.w3.org/1999/02/22-rdf-syntax-ns#"
   xmlns:svg="http://www.w3.org/2000/svg"
   xmlns="http://www.w3.org/2000/svg"
   xmlns:sodipodi="http://sodipodi.sourceforge.net/DTD/sodipodi-0.dtd"
   xmlns:inkscape="http://www.inkscape.org/namespaces/inkscape"
   version="1.1"
   id="Ebene_1"
   x="0px"
   y="0px"
   width="256"
   height="256"
   viewBox="0 0 256 256"
   enable-background="new 0 0 565 137"
   xml:space="preserve"
   inkscape:version="0.48.3.1 r9886"
   sodipodi:docname="info.swr.de.svg"><metadata
   id="metadata9"><rdf:RDF><cc:Work
       rdf:about=""><dc:format>image/svg+xml</dc:format><dc:type
         rdf:resource="http://purl.org/dc/dcmitype/StillImage" /></cc:Work></rdf:RDF></metadata><defs
   id="defs7" /><sodipodi:namedview
   pagecolor="#ffffff"
   bordercolor="#666666"
   borderopacity="1"
   objecttolerance="10"
   gridtolerance="10"
   guidetolerance="10"
   inkscape:pageopacity="0"
   inkscape:pageshadow="2"
   inkscape:window-width="1920"
   inkscape:window-height="1129"
   id="namedview5"
   showgrid="false"
   fit-margin-top="0"
   fit-margin-left="0"
   fit-margin-right="0"
   fit-margin-bottom="0"
   inkscape:zoom="0.80597658"
   inkscape:cx="26.395091"
   inkscape:cy="20.808719"
   inkscape:window-x="0"
   inkscape:window-y="25"
   inkscape:window-maximized="1"
   inkscape:current-layer="Ebene_1" />
<path
   stroke-miterlimit="10"
   d="M 21.14435,131.37711 0.25321182,110.31429 v 13.70291 l 7.35990758,7.35991 -7.35990758,7.35889 v 13.70595 L 21.14435,131.37711 z m -2.118892,21.06535 20.891138,-21.06535 -20.891138,-21.06282 v 13.70291 l 7.359401,7.35991 -7.359401,7.35889 v 13.70646 z m 47.585426,-32.40527 0.01671,-7.73669 c -2.35438,-0.44819 -4.878414,-0.67254 -6.898046,-0.67254 -9.511211,0 -15.283469,4.70623 -15.120906,11.83217 0.287651,12.58269 15.178132,9.38207 15.178132,15.84256 0,2.69724 -2.313359,4.04484 -5.529173,4.04484 -2.748887,0 -5.962674,-0.81687 -8.09372,-1.60335 l -0.388937,8.30541 c 2.411607,0.56264 5.172142,0.84573 7.808603,0.84573 9.679344,0 15.569093,-5.46384 15.569093,-12.82983 0,-11.85242 -15.176612,-9.6054 -15.176612,-15.50326 0,-2.1356 1.7492,-3.70907 5.415733,-3.70907 2.246005,0 5.086556,0.56619 7.219121,1.18403 m 37.248238,30.30359 6.70054,-37.92279 h -8.82855 l -3.821503,23.47544 -3.820994,-23.47544 h -2.003426 -4.818656 -2.002413 l -3.820994,23.47544 -3.819981,-23.47544 h -8.830066 l 6.701552,37.92279 h 3.068949 5.760104 1.060459 l 4.292477,-24.3399 4.292478,24.3399 h 1.061472 5.759602 3.06895 z m 25.90173,-26.22584 c 0,3.19961 -2.37211,5.16201 -6.09739,5.16201 -0.84826,0 -1.75072,-0.0557 -2.20194,-0.11192 v -9.7077 c 0.50845,-0.0547 1.52434,-0.11192 2.4273,-0.11192 4.12181,0 5.87203,1.79478 5.87203,4.76953 m 3.70856,14.02905 c -0.95562,-1.40382 -1.91075,-2.80611 -2.92259,-4.26513 5.05769,-1.23518 8.20311,-5.38839 8.20311,-10.49419 0,-8.04105 -5.2243,-11.25281 -14.183,-11.25281 -4.56696,0 -8.66801,0.0567 -11.87066,0.28258 v 37.90761 h 8.76474 v -14.81604 h 0.3388 l 9.02808,14.81604 h 10.65574 l -8.01422,-12.17806 z m 14.62562,-18.93481 v 6.23513 c 1.84543,0.12712 4.00838,0.38185 5.53525,0.63607 v 24.24167 h 9.73506 v -31.68564 c -5.40865,-0.19092 -10.62586,0.0638 -15.27031,0.57277 m 16.35153,-9.92547 c 0,-3.18137 -2.67242,-5.72617 -5.9171,-5.72617 -3.30849,0 -5.9176,2.6086 -5.9176,5.72617 0,3.18138 2.60861,5.72617 5.9176,5.72617 3.24468,0 5.9171,-2.54479 5.9171,-5.72617 m 30.03012,41.03783 h 4.77207 v -22.01439 c 0,-5.66287 -2.29007,-10.18021 -9.54363,-10.18021 -5.47194,0 -9.48031,3.05427 -11.32523,7.69871 l -0.12711,-0.0638 c 0.38134,-1.97203 0.57226,-5.02629 0.57226,-7.06213 -3.24417,-0.12711 -7.44347,0.0638 -10.2435,0.44515 v 2.73623 c 1.84542,0.12711 4.00837,0.38134 5.53525,0.63607 v 27.80387 h 4.70825 v -15.14217 c 0,-7.50779 4.00837,-13.10685 9.67175,-13.10685 4.64444,0 5.9804,2.86334 5.9804,7.82582 v 20.42371 z m 33.65716,-42.18286 0.44515,-4.00837 c -1.7178,-0.38185 -3.4356,-0.57277 -5.21671,-0.57277 -7.57159,0 -11.96181,4.07218 -11.96181,12.91592 v 2.22676 h -6.87121 v 3.75364 h 6.87121 v 27.86768 h 4.77206 v -27.86768 h 9.3527 v -3.75364 h -9.3527 v -2.35438 c 0,-6.10751 2.16295,-8.90704 6.99883,-8.90704 1.65399,0 3.3723,0.19092 4.96248,0.69988 m 22.64996,26.14937 c 0,8.71612 -4.51733,12.53408 -9.48032,12.53408 -6.17132,0 -9.67073,-4.45403 -9.67073,-12.53408 0,-8.46189 4.70825,-12.21654 9.67073,-12.21654 6.29945,5e-4 9.48032,4.58164 9.48032,12.21654 m 4.96299,-0.31854 c 0,-11.57895 -6.29895,-15.84206 -13.99765,-15.84206 -9.48032,0 -15.07888,7.50779 -15.07888,16.54245 0,11.06999 5.47195,16.2234 13.93384,16.2234 9.3522,0 15.14269,-7.50678 15.14269,-16.92379"
   id="path3"
   inkscape:connector-curvature="0"
   style="stroke:#000000;stroke-width:0.50642729;stroke-miterlimit:10" />
</svg>