<?xml version="1.0" encoding="UTF-8" standalone="no"?>
<!-- Created with Inkscape (http://www.inkscape.org/) -->

<svg
   xmlns:dc="http://purl.org/dc/elements/1.1/"
   xmlns:cc="http://creativecommons.org/ns#"
   xmlns:rdf="http://www.w3.org/1999/02/22-rdf-syntax-ns#"
   xmlns:svg="http://www.w3.org/2000/svg"
   xmlns="http://www.w3.org/2000/svg"
   xmlns:sodipodi="http://sodipodi.sourceforge.net/DTD/sodipodi-0.dtd"
   xmlns:inkscape="http://www.inkscape.org/namespaces/inkscape"
   version="1.0"
   width="554.88"
   height="554.88"
   id="svg2"
   inkscape:version="0.47 r22583"
   sodipodi:docname="neo.zdf.de.svg"
   inkscape:export-filename="D:\projekte\kasa\mythtv\chanlogos\16x16/neo.zdf.de.png"
   inkscape:export-xdpi="2.5951557"
   inkscape:export-ydpi="2.5951557">
  <metadata
     id="metadata20">
    <rdf:RDF>
      <cc:Work
         rdf:about="">
        <dc:format>image/svg+xml</dc:format>
        <dc:type
           rdf:resource="http://purl.org/dc/dcmitype/StillImage" />
        <dc:title></dc:title>
      </cc:Work>
    </rdf:RDF>
  </metadata>
  <sodipodi:namedview
     pagecolor="#ffffff"
     bordercolor="#666666"
     borderopacity="1"
     objecttolerance="10"
     gridtolerance="10"
     guidetolerance="10"
     inkscape:pageopacity="0"
     inkscape:pageshadow="2"
     inkscape:window-width="1440"
     inkscape:window-height="851"
     id="namedview18"
     showgrid="false"
     units="px"
     inkscape:zoom="0.97330275"
     inkscape:cx="277.40598"
     inkscape:cy="73.955978"
     inkscape:window-x="-4"
     inkscape:window-y="-4"
     inkscape:window-maximized="1"
     inkscape:current-layer="svg2" />
  <defs
     id="defs4">
    <inkscape:perspective
       sodipodi:type="inkscape:persp3d"
       inkscape:vp_x="0 : 73.955978 : 1"
       inkscape:vp_y="0 : 1000 : 0"
       inkscape:vp_z="554.81195 : 73.955978 : 1"
       inkscape:persp3d-origin="277.40598 : 49.303986 : 1"
       id="perspective22" />
  </defs>
  <g
     id="g3192"
     transform="translate(0,203.48407)">
    <path
       d="m 219.85845,138.2982 66.2386,0 0,9.61376 -66.2386,0 0,-9.61376 z"
       id="path2492"
       style="fill:#fa7d19;fill-opacity:1;fill-rule:nonzero;stroke:none" />
    <g
       transform="matrix(3.04812,0,0,-3.04812,0.192032,42.6657)"
       id="g2494"
       style="fill:#fa7d19;fill-opacity:1">
      <path
         d="m 0,0 23.52,0 0,-7.032 -12.908,-17.065 13.292,0 0,-7.032 -23.967,0 0,7.032 L 12.782,-7.032 0,-7.032 0,0 z"
         id="path2496"
         style="fill:#fa7d19;fill-opacity:1;fill-rule:nonzero;stroke:none" />
    </g>
    <g
       transform="matrix(3.04812,0,0,-3.04812,77.7187,75.7914)"
       id="g2506"
       style="fill:#fa7d19;fill-opacity:1">
      <path
         d="m 0,0 c 0,7.352 3.195,11.507 10.482,11.507 2.561,0 5.818,-0.385 7.926,-0.895 l 0,12.975 9.207,1.278 0,-45.126 -7.224,0 -0.958,2.493 C 17.258,-19.173 13.23,-20.902 9.847,-20.902 3.518,-20.902 0,-17 0,-9.394 L 0,0 z m 18.408,2.748 c -1.597,0.385 -3.96,0.768 -5.881,0.768 -2.425,0 -3.32,-1.47 -3.32,-3.516 l 0,-9.394 c 0,-2.176 0.895,-3.516 3.32,-3.516 2.114,0 4.539,1.278 5.881,2.428 l 0,13.23 z"
         id="path2508"
         style="fill:#fa7d19;fill-opacity:1;fill-rule:nonzero;stroke:none" />
    </g>
    <g
       transform="matrix(3.04812,0,0,-3.04812,233.573,24.7422)"
       id="g2510"
       style="fill:#fa7d19;fill-opacity:1">
      <path
         d="m 0,0 c -1.28,0.256 -3.003,0.448 -4.09,0.448 -2.941,0 -3.133,-1.28 -3.133,-3.326 l 0,-3.643 7.348,0 -0.639,-7.541 -6.709,0 0,-22.947 -9.207,0 0,22.947 -4.726,0 0,7.541 4.726,0 0,4.666 c 0,6.394 3.008,9.972 10.549,9.972 2.618,0 4.538,-0.382 7.032,-0.895 L 0,0 z"
         id="path2512"
         style="fill:#fa7d19;fill-opacity:1;fill-rule:nonzero;stroke:none" />
    </g>
    <g
       transform="matrix(3.04812,0,0,-3.04812,348.344,137.547)"
       id="g2514"
       style="fill:#000000;fill-opacity:1">
      <path
         d="m 0,0 0,20.581 c 0,1.408 -0.64,2.238 -2.238,2.238 -1.659,0 -4.731,-1.151 -6.709,-2.238 l 0,-20.581 -9.207,0 0,31.128 6.839,0 0.963,-2.366 c 3.831,1.853 8.817,3.006 12.397,3.006 5.309,0 7.162,-3.963 7.162,-9.972 L 9.207,0 0,0 z"
         id="path2516"
         style="fill:#000000;fill-opacity:1;fill-rule:nonzero;stroke:none" />
    </g>
    <g
       transform="matrix(3.04812,0,0,-3.04812,411.841,99.9422)"
       id="g2518"
       style="fill:#000000;fill-opacity:1">
      <path
         d="m 0,0 0,-0.895 c 0,-3.581 1.405,-4.539 5.621,-4.539 2.878,0 6.714,0.51 9.462,1.343 l 1.343,-6.904 c -2.81,-1.022 -7.349,-1.983 -11.694,-1.983 -10.102,0 -13.938,4.987 -13.938,12.658 l 0,7.286 c 0,6.711 3.002,12.465 13.36,12.465 10.356,0 12.59,-6.136 12.59,-12.912 L 16.744,0 0,0 z m 8.052,8.244 c 0,2.173 -0.641,3.963 -3.836,3.963 C 1.021,12.207 0,10.417 0,8.244 L 0,6.9 l 8.052,0 0,1.344 z"
         id="path2520"
         style="fill:#000000;fill-opacity:1;fill-rule:nonzero;stroke:none" />
    </g>
    <g
       transform="matrix(3.04812,0,0,-3.04812,469.084,101.117)"
       id="g2522"
       style="fill:#000000;fill-opacity:1">
      <path
         d="m 0,0 0,7.224 c 0,6.391 3.003,12.593 14.063,12.593 11.059,0 14.062,-6.202 14.062,-12.593 l 0,-7.224 c 0,-6.391 -3.003,-12.593 -14.062,-12.593 C 3.003,-12.593 0,-6.391 0,0 m 18.918,-0.254 0,7.733 c 0,2.941 -1.53,4.603 -4.855,4.603 -3.326,0 -4.856,-1.662 -4.856,-4.603 l 0,-7.733 c 0,-2.942 1.53,-4.604 4.856,-4.604 3.325,0 4.855,1.662 4.855,4.604"
         id="path2524"
         style="fill:#000000;fill-opacity:1;fill-rule:nonzero;stroke:none" />
    </g>
  </g>
</svg>
