<?xml version="1.0" encoding="UTF-8" standalone="no"?>
<!-- Created with Inkscape (http://www.inkscape.org/) -->

<svg
   xmlns:dc="http://purl.org/dc/elements/1.1/"
   xmlns:cc="http://creativecommons.org/ns#"
   xmlns:rdf="http://www.w3.org/1999/02/22-rdf-syntax-ns#"
   xmlns:svg="http://www.w3.org/2000/svg"
   xmlns="http://www.w3.org/2000/svg"
   xmlns:sodipodi="http://sodipodi.sourceforge.net/DTD/sodipodi-0.dtd"
   xmlns:inkscape="http://www.inkscape.org/namespaces/inkscape"
   version="1.1"
   width="256"
   height="256"
   id="svg2"
   inkscape:version="0.48.3.1 r9886"
   sodipodi:docname="neo.zdf.de.svg">
  <sodipodi:namedview
     pagecolor="#ffffff"
     bordercolor="#666666"
     borderopacity="1"
     objecttolerance="10"
     gridtolerance="10"
     guidetolerance="10"
     inkscape:pageopacity="0"
     inkscape:pageshadow="2"
     inkscape:window-width="1920"
     inkscape:window-height="1129"
     id="namedview3385"
     showgrid="false"
     fit-margin-top="5"
     fit-margin-left="5"
     fit-margin-right="5"
     fit-margin-bottom="5"
     inkscape:zoom="0.59894189"
     inkscape:cx="-170.30916"
     inkscape:cy="53.828171"
     inkscape:window-x="0"
     inkscape:window-y="25"
     inkscape:window-maximized="1"
     inkscape:current-layer="layer3" />
  <metadata
     id="metadata8">
    <rdf:RDF>
      <cc:Work
         rdf:about="">
        <dc:format>image/svg+xml</dc:format>
        <dc:type
           rdf:resource="http://purl.org/dc/dcmitype/StillImage" />
        <dc:title></dc:title>
      </cc:Work>
    </rdf:RDF>
  </metadata>
  <defs
     id="defs6" />
  <g
     inkscape:groupmode="layer"
     id="layer1"
     inkscape:label="neo"
     style="display:inline"
     sodipodi:insensitive="true">
    <g
       transform="matrix(0.34343844,0,0,0.34343844,-1.8589096e-7,137.41307)"
       id="g3192">
      <path
         d="m 219.85845,138.2982 66.2386,0 0,9.61376 -66.2386,0 0,-9.61376 z"
         id="path2492"
         style="fill:#fa7d19;fill-opacity:1;fill-rule:nonzero;stroke:none"
         inkscape:connector-curvature="0" />
      <g
         transform="matrix(3.0481156,0,0,-3.0481156,0.192032,42.6657)"
         id="g2494"
         style="fill:#fa7d19;fill-opacity:1">
        <path
           d="m 0,0 23.52,0 0,-7.032 -12.908,-17.065 13.292,0 0,-7.032 -23.967,0 0,7.032 L 12.782,-7.032 0,-7.032 0,0 z"
           id="path2496"
           style="fill:#fa7d19;fill-opacity:1;fill-rule:nonzero;stroke:none"
           inkscape:connector-curvature="0" />
      </g>
      <g
         transform="matrix(3.0481156,0,0,-3.0481156,77.718716,75.7914)"
         id="g2506"
         style="fill:#fa7d19;fill-opacity:1">
        <path
           d="m 0,0 c 0,7.352 3.195,11.507 10.482,11.507 2.561,0 5.818,-0.385 7.926,-0.895 l 0,12.975 9.207,1.278 0,-45.126 -7.224,0 -0.958,2.493 C 17.258,-19.173 13.23,-20.902 9.847,-20.902 3.518,-20.902 0,-17 0,-9.394 L 0,0 z m 18.408,2.748 c -1.597,0.385 -3.96,0.768 -5.881,0.768 -2.425,0 -3.32,-1.47 -3.32,-3.516 l 0,-9.394 c 0,-2.176 0.895,-3.516 3.32,-3.516 2.114,0 4.539,1.278 5.881,2.428 l 0,13.23 z"
           id="path2508"
           style="fill:#fa7d19;fill-opacity:1;fill-rule:nonzero;stroke:none"
           inkscape:connector-curvature="0" />
      </g>
      <g
         transform="matrix(3.0481156,0,0,-3.0481156,233.57346,24.74217)"
         id="g2510"
         style="fill:#fa7d19;fill-opacity:1">
        <path
           d="m 0,0 c -1.28,0.256 -3.003,0.448 -4.09,0.448 -2.941,0 -3.133,-1.28 -3.133,-3.326 l 0,-3.643 7.348,0 -0.639,-7.541 -6.709,0 0,-22.947 -9.207,0 0,22.947 -4.726,0 0,7.541 4.726,0 0,4.666 c 0,6.394 3.008,9.972 10.549,9.972 2.618,0 4.538,-0.382 7.032,-0.895 L 0,0 z"
           id="path2512"
           style="fill:#fa7d19;fill-opacity:1;fill-rule:nonzero;stroke:none"
           inkscape:connector-curvature="0" />
      </g>
      <g
         transform="matrix(3.0481156,0,0,-3.0481156,348.34413,137.5468)"
         id="g2514"
         style="fill:#000000;fill-opacity:1">
        <path
           d="m 0,0 0,20.581 c 0,1.408 -0.64,2.238 -2.238,2.238 -1.659,0 -4.731,-1.151 -6.709,-2.238 l 0,-20.581 -9.207,0 0,31.128 6.839,0 0.963,-2.366 c 3.831,1.853 8.817,3.006 12.397,3.006 5.309,0 7.162,-3.963 7.162,-9.972 L 9.207,0 0,0 z"
           id="path2516"
           style="fill:#000000;fill-opacity:1;fill-rule:nonzero;stroke:none"
           inkscape:connector-curvature="0" />
      </g>
      <g
         transform="matrix(3.0481156,0,0,-3.0481156,411.8407,99.94223)"
         id="g2518"
         style="fill:#000000;fill-opacity:1">
        <path
           d="m 0,0 0,-0.895 c 0,-3.581 1.405,-4.539 5.621,-4.539 2.878,0 6.714,0.51 9.462,1.343 l 1.343,-6.904 c -2.81,-1.022 -7.349,-1.983 -11.694,-1.983 -10.102,0 -13.938,4.987 -13.938,12.658 l 0,7.286 c 0,6.711 3.002,12.465 13.36,12.465 10.356,0 12.59,-6.136 12.59,-12.912 L 16.744,0 0,0 z m 8.052,8.244 c 0,2.173 -0.641,3.963 -3.836,3.963 C 1.021,12.207 0,10.417 0,8.244 L 0,6.9 l 8.052,0 0,1.344 z"
           id="path2520"
           style="fill:#000000;fill-opacity:1;fill-rule:nonzero;stroke:none"
           inkscape:connector-curvature="0" />
      </g>
      <g
         transform="matrix(3.0481156,0,0,-3.0481156,469.0837,101.11729)"
         id="g2522"
         style="fill:#000000;fill-opacity:1">
        <path
           d="m 0,0 0,7.224 c 0,6.391 3.003,12.593 14.063,12.593 11.059,0 14.062,-6.202 14.062,-12.593 l 0,-7.224 c 0,-6.391 -3.003,-12.593 -14.062,-12.593 C 3.003,-12.593 0,-6.391 0,0 m 18.918,-0.254 0,7.733 c 0,2.941 -1.53,4.603 -4.855,4.603 -3.326,0 -4.856,-1.662 -4.856,-4.603 l 0,-7.733 c 0,-2.942 1.53,-4.604 4.856,-4.604 3.325,0 4.855,1.662 4.855,4.604"
           id="path2524"
           style="fill:#000000;fill-opacity:1;fill-rule:nonzero;stroke:none"
           inkscape:connector-curvature="0" />
      </g>
    </g>
  </g>
  <g
     inkscape:groupmode="layer"
     id="layer3"
     inkscape:label="KiKa"
     style="display:inline"
     sodipodi:insensitive="true">
    <g
       style="display:inline"
       id="g3399">
      <g
         transform="translate(0,18.812397)"
         id="g3356"
         style="display:inline">
        <path
           inkscape:connector-curvature="0"
           style="fill:#015b63;fill-opacity:1;stroke:none"
           id="path3033-8"
           d="m 6.5253491,48.97598 c -3.8375218,0 -6.52424357,3.755855 -6.52424357,6.834922 l 0,52.815308 c 0,4.36679 3.10748537,7.1456 7.14560017,7.1456 l 17.7086613,0 0,-13.66985 14.291201,12.42713 c 1.042148,0.90013 1.994784,1.24272 3.728139,1.24272 l 8.330061,0 c 2.488921,0 4.570081,-1.10633 5.844635,-2.71844 1.213596,1.62046 3.160226,2.71844 5.708713,2.71844 l 5.592209,0 c 1.354051,0 2.926512,-0.70512 4.349496,-1.86407 l 4.970852,-4.04853 0,5.9126 17.708662,0 c 4.453417,0 7.145595,-3.33331 7.145595,-7.1456 l 0,-6.52425 13.66985,11.80578 c 1.2112,1.04604 2.4518,1.86407 4.34949,1.86407 l 8.33007,0 c 2.39736,0 4.40521,-1.09642 5.68929,-2.74756 1.18302,1.66398 3.20857,2.74756 6.17473,2.74756 l 17.08731,0 0,-19.572734 9.00967,0 0,19.572734 17.39798,0 c 4.38442,0 7.1456,-2.76152 7.1456,-7.1456 l 0,-52.815404 c 0,-3.8133 -2.628,-6.834935 -6.83492,-6.834922 l -32.62122,9.6e-5 -15.84459,12.631014 0,-5.796092 c 0,-3.277736 -2.91942,-6.834922 -6.83492,-6.834922 l -8.699,0 c -1.96606,0 -2.93209,0.639954 -4.34949,1.86407 l -13.66985,11.805774 0,-6.834922 c 0,-3.283316 -2.978443,-6.834922 -6.834917,-6.834922 l -33.242575,0 c -2.328372,0 -4.256957,1.025366 -5.465996,2.631057 C 55.741081,50.00523 53.797214,48.97598 51.573699,48.97598 l -8.698992,0 c -1.473044,0 -2.758009,0.399123 -3.728139,1.242714 l -14.291201,12.42713 0,-13.669844 z m 151.3003209,18.640697 9.00967,0 0,8.388313 -9.00967,0 z m -24.54359,1.009704 0,27.436773 -17.0873,-13.68926 z m -77.669564,0.02911 0,27.37852 L 38.83589,82.373879 z" />
        <path
           inkscape:connector-curvature="0"
           style="fill:#ffeb1b;fill-opacity:1;stroke:none;display:inline"
           id="path2995-5"
           d="m 6.5253491,51.461407 c -2.0363398,0 -4.0388174,2.140427 -4.0388174,4.349495 l 0,52.815308 c 0,3.05208 1.6080939,4.66017 4.660174,4.66017 l 15.2232353,0 0,-16.77663 18.640696,16.15527 c 0.466962,0.40711 1.116749,0.62136 1.86407,0.62136 l 8.330061,0 c 2.785576,0 4.718426,-1.56942 4.718426,-4.66017 l 0,-9.07763 -21.4368,-17.17469 21.4368,-17.24264 0,-9.320348 c 0,-2.866889 -1.913048,-4.349495 -4.349495,-4.349495 l -8.698992,0 c -0.897857,0 -1.365192,0.188995 -1.86407,0.621356 l -18.640696,16.155267 0,-16.776623 z m 55.9220889,0 c -2.524671,0 -4.349496,1.768846 -4.349496,4.349495 l 0,9.320348 19.88341,0 0,-13.669843 z m 17.708661,0 0,61.824973 15.223236,0 c 3.220873,0 4.660175,-1.99826 4.660175,-4.66017 l 0,-12.11646 18.64069,16.15527 c 0.46697,0.40711 1.11675,0.62136 1.86407,0.62136 l 8.33007,0 c 2.78557,0 4.71842,-1.56942 4.71842,-4.66017 l 0,-9.07763 -21.4368,-17.17469 21.4368,-17.24264 0,-9.320348 c 0,-2.784718 -2.15955,-4.349495 -4.34949,-4.349495 l -8.699,0 c -0.89785,0 -1.36519,0.188995 -1.86407,0.621356 l -18.64069,16.155267 0,-12.427128 c 0,-2.37945 -1.477351,-4.349495 -4.349497,-4.349495 z m 72.388041,0 -16.77663,13.6213 0,43.543503 c 0,2.74802 1.8003,4.66017 4.97085,4.66017 l 14.60188,0 0,-19.57273 13.98052,0 0,19.57273 14.91256,0 c 3.14346,0 4.66017,-1.77324 4.66017,-4.66017 l 0,-52.815308 c 0,-2.416418 -1.94985,-4.349495 -4.34949,-4.349495 z m 2.7961,13.669843 13.98052,0 0,13.35917 -13.98052,0 z m -97.242298,2.485427 0,41.009533 c 0,2.73089 1.296001,4.66017 4.660174,4.66017 l 5.592209,0 c 0.696693,0 1.329871,-0.194 1.86407,-0.62136 l 7.766957,-6.21356 0,-34.48529 c 0,-2.58065 -1.824825,-4.349493 -4.349496,-4.349493 z" />
      </g>
    </g>
  </g>
  <g
     inkscape:groupmode="layer"
     id="layer2"
     inkscape:label="HD"
     style="display:none"
     sodipodi:insensitive="true">
    <path
       d="m 203.38276,133.54712 0,-16.92636 3.81439,0 3.81439,0 0,6.79439 0,6.79438 5.48319,0 5.48318,0 0,-6.79438 0,-6.79439 3.8144,0 3.81439,0 0,16.92636 0,16.92636 -3.81439,0 -3.8144,0 0,-6.79438 0,-6.79438 -5.48318,0 -5.48319,0 0,6.79438 0,6.79438 -3.81439,0 -3.81439,0 z m 28.1813,0 0,-16.96409 8.28438,0.0914 c 7.61378,0.084 8.4043,0.13156 9.76584,0.58721 2.89367,0.96839 4.8329,2.55677 5.87619,4.8131 0.49575,1.07217 0.50953,1.38253 0.50953,11.47235 0,10.15647 -0.0107,10.39334 -0.51972,11.48362 -1.05857,2.2675 -2.97104,3.83302 -5.866,4.80183 -1.36154,0.45566 -2.15206,0.5032 -9.76584,0.58723 l -8.28438,0.0914 z m 15.0648,9.67723 c 1.76366,-0.84317 1.74236,-0.72486 1.74236,-9.67723 0,-7.31156 -0.0364,-8.04004 -0.43116,-8.62144 -0.78193,-1.15171 -1.86704,-1.46592 -5.46922,-1.58369 l -3.278,-0.10716 0,10.31229 0,10.3123 3.278,-0.10717 c 2.47058,-0.0808 3.49475,-0.2108 4.15802,-0.5279 z"
       id="path2987-3"
       style="fill:#333333"
       inkscape:connector-curvature="0" />
    <g
       id="layer2-6-2"
       inkscape:label="HD"
       style="display:inline"
       transform="translate(-1.243266,14.868868)">
      <g
         id="g2992-1-9"
         transform="matrix(0.31067827,0,0,0.31067827,-2.4702837e-7,95.490479)">
        <path
           inkscape:connector-curvature="0"
           style="fill:#015b63;fill-opacity:1;stroke:none"
           id="path2996-9-0"
           d="m 632.00356,90.999945 174,0 c 10.81886,0 18,-9.11507 18,-18 l 0,-85.952814 -42.70608,-33.766186 -127.29392,0 c -12.48568,0 -22,9.955169 -22,22 z" />
        <path
           inkscape:connector-curvature="0"
           style="fill:#ffeb1b;fill-opacity:1;stroke:none"
           id="rect2998-5-1"
           d="m 663.97231,-25.999994 c -3.29817,0 -5.96875,2.670577 -5.96875,5.96875 l 0,85.062499 c 0,3.29817 2.67058,5.96875 5.96875,5.96875 l 19.03125,0 0,-36.249999 16,0 0,36.249999 19.03125,0 c 3.29817,0 5.96875,-2.67058 5.96875,-5.96875 l 0,-85.062499 c 0,-3.298173 -2.67058,-5.96875 -5.96875,-5.96875 l -19.03125,0 0,36 -16,0 0,-36 -19.03125,0 z m 70.03125,0 0,96.999999 42,0 23,-18.999999 0,-59.0000002 -23,-18.9999998 -42,0 z m 22,23.9999998 14,0 7,7 0,35.0000002 -7,7 -14,0 0,-49.0000002 z" />
      </g>
    </g>
  </g>
</svg>
