<?xml version="1.0" encoding="UTF-8" standalone="no"?>
<!-- Created with Inkscape (http://www.inkscape.org/) -->

<svg
   xmlns:dc="http://purl.org/dc/elements/1.1/"
   xmlns:cc="http://creativecommons.org/ns#"
   xmlns:rdf="http://www.w3.org/1999/02/22-rdf-syntax-ns#"
   xmlns:svg="http://www.w3.org/2000/svg"
   xmlns="http://www.w3.org/2000/svg"
   xmlns:sodipodi="http://sodipodi.sourceforge.net/DTD/sodipodi-0.dtd"
   xmlns:inkscape="http://www.inkscape.org/namespaces/inkscape"
   version="1.1"
   width="256"
   height="256"
   viewBox="0 0 72.248888 72.248887"
   id="svg2"
   xml:space="preserve"
   style="fill-rule:evenodd"
   inkscape:version="0.48.3.1 r9886"
   sodipodi:docname="tele5.de-wikipedia.svg"><metadata
   id="metadata3062"><rdf:RDF><cc:Work
       rdf:about=""><dc:format>image/svg+xml</dc:format><dc:type
         rdf:resource="http://purl.org/dc/dcmitype/StillImage" /><dc:title></dc:title></cc:Work></rdf:RDF></metadata><sodipodi:namedview
   pagecolor="#ffffff"
   bordercolor="#666666"
   borderopacity="1"
   objecttolerance="10"
   gridtolerance="10"
   guidetolerance="10"
   inkscape:pageopacity="0"
   inkscape:pageshadow="2"
   inkscape:window-width="1920"
   inkscape:window-height="1129"
   id="namedview3060"
   showgrid="false"
   inkscape:zoom="0.92968849"
   inkscape:cx="174.25191"
   inkscape:cy="66.288898"
   inkscape:window-x="0"
   inkscape:window-y="25"
   inkscape:window-maximized="1"
   inkscape:current-layer="svg2" />
 <defs
   id="defs4"><style
     type="text/css"
     id="style6" /></defs>
<g
   id="g3618"
   transform="matrix(0.41827813,0,0,0.41827813,0,27.918288)"><path
     d="m 158.4463,39.237797 -38.086,0 14.282,-39.2378 38.087,0 z"
     id="polygon42"
     style="fill:#ce1f37;fill-opacity:1;fill-rule:nonzero"
     inkscape:connector-curvature="0" /><path
     d="M 117.0123,39.237797 0,39.237797 14.2808,-3e-6 l 117.0135,0 z"
     id="polygon40"
     style="fill:#ce1f37;fill-opacity:1;fill-rule:nonzero"
     inkscape:connector-curvature="0" /><path
     d="m 138.5783,5.8949973 22.9225,0 -1.838,5.0516997 -17.1204,0 -2.0115,5.2819 c 2.1048,-1.1653 5.7749,-1.6314 7.8644,-1.6314 5.6239,0 11.9526,2.0991 10.4978,9.0906 -1.4368,6.9165 -8.5116,9.869 -15.7701,9.869 -5.6239,0 -12.2918,-1.6118 -11.1165,-8.7205 l 7.6002,0 c 0.0865,2.8748 1.3351,3.6701 4.4898,3.6701 4.3709,0 6.7384,-1.5157 7.3839,-4.6236 0.8081,-3.8848 -3.2789,-4.7001 -5.5206,-4.7001 -1.8237,0 -4.2468,0.5042 -5.8982,1.8633 l -6.9927,0 5.5094,-15.1509997 z"
     id="path52"
     style="fill:#ffffff;fill-opacity:1;fill-rule:nonzero"
     inkscape:connector-curvature="0" /><path
     d="m 25.6239,11.574197 -9.465,0 2.0259,-5.6123 26.7636,0 -2.0403,5.6123 -9.322,0 -7.8817,21.7636 -7.9493,0 z"
     id="polygon44"
     style="fill:#ffffff;fill-opacity:1;fill-rule:nonzero;stroke:none"
     inkscape:connector-curvature="0" /><path
     d="m 48.4243,27.727097 14.7714,0 -2.0639,5.6117 -22.9153,0 9.9183,-27.3769 22.9365,0 -1.9594,5.6127 -14.976,0 -1.7728,5.0813 14.1411,0 -1.9991,5.6099 -14.141,0 z"
     id="polygon46"
     style="fill:#ffffff;fill-opacity:1;fill-rule:nonzero;stroke:none"
     inkscape:connector-curvature="0" /><path
     d="m 75.6749,27.727097 13.1904,0 -1.961,5.6117 -21.4533,0 9.9343,-27.3769 8.203,0 z"
     id="polygon48"
     style="fill:#ffffff;fill-opacity:1;fill-rule:nonzero;stroke:none"
     inkscape:connector-curvature="0" /><path
     d="m 100.1323,27.727097 14.718,0 -1.962,5.6117 -23.092,0 9.92,-27.3769 23.063,0 -1.959,5.6127 -14.976,0 -1.773,5.0813 14.141,0 -1.999,5.6099 -14.14,0 z"
     id="polygon50"
     style="fill:#ffffff;fill-opacity:1;fill-rule:nonzero;stroke:none"
     inkscape:connector-curvature="0" /></g></svg>