<?xml version="1.0" encoding="UTF-8" standalone="no"?>
<!-- Created with Inkscape (http://www.inkscape.org/) -->
<svg
   xmlns:dc="http://purl.org/dc/elements/1.1/"
   xmlns:cc="http://web.resource.org/cc/"
   xmlns:rdf="http://www.w3.org/1999/02/22-rdf-syntax-ns#"
   xmlns:svg="http://www.w3.org/2000/svg"
   xmlns="http://www.w3.org/2000/svg"
   xmlns:sodipodi="http://sodipodi.sourceforge.net/DTD/sodipodi-0.dtd"
   xmlns:inkscape="http://www.inkscape.org/namespaces/inkscape"
   version="1.0"
   width="256"
   height="256"
   id="svg2"
   sodipodi:version="0.32"
   inkscape:version="0.45.1"
   sodipodi:docname="tele5.de-square.svg"
   inkscape:output_extension="org.inkscape.output.svg.inkscape"
   sodipodi:docbase="D:\projekte\kasa\mythtv\chanlogos"
   inkscape:export-filename="D:\projekte\kasa\mythtv\chanlogos\16x16\tele5.de.png"
   inkscape:export-xdpi="5.625"
   inkscape:export-ydpi="5.625">
  <metadata
     id="metadata12">
    <rdf:RDF>
      <cc:Work
         rdf:about="">
        <dc:format>image/svg+xml</dc:format>
        <dc:type
           rdf:resource="http://purl.org/dc/dcmitype/StillImage" />
      </cc:Work>
    </rdf:RDF>
  </metadata>
  <sodipodi:namedview
     inkscape:window-height="579"
     inkscape:window-width="801"
     inkscape:pageshadow="2"
     inkscape:pageopacity="0.0"
     guidetolerance="10.0"
     gridtolerance="10.0"
     objecttolerance="10.0"
     borderopacity="1.0"
     bordercolor="#666666"
     pagecolor="#ffffff"
     id="base"
     width="256px"
     height="256px"
     inkscape:zoom="0.9854773"
     inkscape:cx="363.78311"
     inkscape:cy="142.34274"
     inkscape:window-x="176"
     inkscape:window-y="176"
     inkscape:current-layer="g4335" />
  <defs
     id="defs4" />
  <g
     id="g4335"
     transform="translate(-6.7738801,-5.4571349)">
    <g
       id="g2170"
       transform="matrix(0.8992379,0,0,0.8992379,-196.35292,0.5498856)">
      <path
         d="M 243.43464,184.31231 L 331.9873,184.31231 C 332.05637,189.44679 332.24056,193.7524 337.37505,199.20923 C 344.12127,206.48501 357.54461,210.39919 371.4745,210.39919 C 371.54357,210.39919 371.63567,210.39919 371.70475,210.39919 C 401.52161,210.30709 420.24063,194.8806 427.40128,177.79634 C 428.13806,176.0695 428.78276,174.31963 429.26627,172.56976 C 430.3254,168.7707 430.73985,165.27096 430.62472,162.00146 C 430.04911,145.30862 414.76077,135.96063 391.71313,135.96063 C 389.22648,135.96063 386.90099,136.09878 384.64457,136.306 C 360.69898,138.42426 350.26884,151.01872 345.59484,156.84395 L 299.61469,156.84395 L 339.58542,47.569148 L 397.33113,47.569148 L 413.79373,5.4571349 L 244.1484,5.4571349 L 227.63976,47.68427 L 291.25676,47.68427 L 243.43464,184.31231 z "
         id="path14546"
         style="fill:#d4003b;fill-opacity:1;fill-rule:nonzero;stroke:none" />
      <path
         d="M 508.8209,83.326367 L 373.75854,83.303345 L 357.89458,122.62938 C 364.70986,117.79421 369.95948,114.15632 382.0474,109.91979 C 384.53405,109.11393 387.06676,108.42319 389.62249,107.77851 C 399.43098,105.2458 409.72297,103.86432 420.06102,103.86432 C 455.6801,103.86432 486.53308,119.98155 482.87217,157.48864 L 508.8209,83.326367 z "
         id="path14550"
         style="fill:#d4003b;fill-opacity:1;fill-rule:nonzero;stroke:none" />
      <path
         d="M 434.5297,229.26556 C 414.47526,241.16928 389.35541,247.6392 360.73582,247.6392 C 342.86872,247.6392 328.96186,245.24464 318.09424,241.35348 L 301.033,290.14263 L 436.41771,290.14263 L 457.78455,229.08136 L 469.73433,195.00494 C 465.65897,201.63602 460.43239,208.31316 453.82432,214.64493 C 448.06817,220.17084 441.62128,225.05206 434.5297,229.26556"
         id="path14554"
         style="fill:#d4003b;fill-opacity:1;fill-rule:nonzero;stroke:none" />
    </g>
  </g>
</svg>
