<?xml version="1.0" encoding="UTF-8" standalone="no"?>
<!-- Created with Inkscape (http://www.inkscape.org/) -->

<svg
   xmlns:dc="http://purl.org/dc/elements/1.1/"
   xmlns:cc="http://creativecommons.org/ns#"
   xmlns:rdf="http://www.w3.org/1999/02/22-rdf-syntax-ns#"
   xmlns:svg="http://www.w3.org/2000/svg"
   xmlns="http://www.w3.org/2000/svg"
   xmlns:sodipodi="http://sodipodi.sourceforge.net/DTD/sodipodi-0.dtd"
   xmlns:inkscape="http://www.inkscape.org/namespaces/inkscape"
   version="1.0"
   width="698.84003"
   height="698.84003"
   id="svg1992"
   inkscape:version="0.47 r22583"
   sodipodi:docname="zdf.de.svg"
   inkscape:export-filename="D:\projekte\kasa\mythtv\chanlogos\16x16/zdf.de.png"
   inkscape:export-xdpi="2.0605574"
   inkscape:export-ydpi="2.0605574">
  <metadata
     id="metadata13">
    <rdf:RDF>
      <cc:Work
         rdf:about="">
        <dc:format>image/svg+xml</dc:format>
        <dc:type
           rdf:resource="http://purl.org/dc/dcmitype/StillImage" />
        <dc:title></dc:title>
      </cc:Work>
    </rdf:RDF>
  </metadata>
  <sodipodi:namedview
     pagecolor="#ffffff"
     bordercolor="#666666"
     borderopacity="1"
     objecttolerance="10"
     gridtolerance="10"
     guidetolerance="10"
     inkscape:pageopacity="0"
     inkscape:pageshadow="2"
     inkscape:window-width="640"
     inkscape:window-height="488"
     id="namedview11"
     showgrid="false"
     inkscape:zoom="0.57781886"
     inkscape:cx="349.42001"
     inkscape:cy="204.21625"
     inkscape:window-x="0"
     inkscape:window-y="0"
     inkscape:window-maximized="0"
     inkscape:current-layer="svg1992" />
  <defs
     id="defs1994">
    <inkscape:perspective
       sodipodi:type="inkscape:persp3d"
       inkscape:vp_x="0 : 204.21625 : 1"
       inkscape:vp_y="0 : 1000 : 0"
       inkscape:vp_z="698.84003 : 204.21625 : 1"
       inkscape:persp3d-origin="349.42001 : 136.14417 : 1"
       id="perspective15" />
  </defs>
  <g
     transform="matrix(0.694092,0,0,0.694092,-5.57874,141.33674)"
     id="g2393">
    <g
       transform="matrix(1.42076,0,0,1.42076,-17.1335,-27.4307)"
       id="layer1">
      <g
         transform="matrix(3.33706,0,0,3.33706,-123.505,-120.076)"
         id="Ebene_x0020_1"
         style="fill:#ff8300;fill-rule:evenodd">
        <path
           d="m 171.853,87.0229 14.0718,0 c 10.6476,0 13.003,7.3983 13.003,17.9905 l 0,0.178 c 0,10.6571 -2.5121,17.9904 -13.1812,17.9904 l -13.8936,0 0,-36.1589 z m -12.0754,45.957 0,0 z M 104.3758,42.9435 c 23.6316,0 44.1807,13.2175 54.661,32.6604 0.1816,0.1681 0.3089,0.3369 0.3699,0.5066 0.194,0.3696 0.3842,0.7414 0.571,1.1154 9.9612,-0.0126 26.1,-0.8082 34.071,0.9606 4.5323,1.0058 8.6838,3.4275 11.1872,6.4469 1.3694,1.6515 2.4542,3.2912 3.3392,5.3888 0.457,1.0831 1.8976,6.4644 2.1087,6.7975 0,-13.4304 6.448,-19.5935 19.9498,-19.5935 l 24.0466,0 0,9.7967 -22.0872,0 c -8.9912,0 -10.153,5.2797 -10.153,14.2498 l 27.9654,0 0,9.6187 -27.9654,0 0,21.9091 -11.7562,0 0,-18.1685 c -0.6675,1.052 -1.622,5.4561 -2.8132,7.5178 -1.3037,2.2562 -2.7926,4.1301 -4.7795,5.7298 -3.9706,3.1962 -8.8328,5.0989 -15.9195,5.0989 l -27.3917,0 c -10.5834,20.7976 -32.0149,34.078 -55.4041,34.078 -34.2671,0 -62.0566,-27.7894 -62.0566,-62.0565 0,-34.2671 27.7895,-62.0565 62.0566,-62.0565 l 0,0 z"
           id="path1986"
           style="fill:#ff8300" />
      </g>
    </g>
    <g
       transform="matrix(1.42076,0,0,1.42076,-17.1335,-27.4307)"
       id="g2387"
       style="fill:#b3b3b3">
      <g
         transform="matrix(3.33706,0,0,3.33706,-123.505,-120.076)"
         id="g2389"
         style="fill:#b3b3b3;fill-rule:evenodd">
        <path
           d="m 112.7784,132.9799 0,-14.4148 c 0,-30.0891 36.304,-10.4406 36.304,-23.8466 l 0,-1.4238 c 0,-4.5632 -4.2347,-6.2286 -8.72,-6.2286 l -27.0501,0 0,-9.7878 32.2107,0 c 11.0421,0 15.6606,7.4029 15.6606,16.9904 0,9.7712 -6.3566,15.1884 -15.2009,16.3918 -10.4007,1.4158 -21.103,-3.4887 -21.103,9.5063 l 0,3.2033 34.8804,0 0.0175,9.6098 -46.9992,0 0,0 z"
           id="path2391"
           style="fill:#ffffff" />
      </g>
    </g>
  </g>
</svg>
